Russolo-10ptExtraLight.ufo
<glyph name="exclam" format="2">
  <advance width="437"/>
  <unicode hex="0021"/>
  <note>
exclam
</note>
  <outline>
    <contour>
      <point x="185" y="313" type="curve"/>
      <point x="251" y="313" type="line"/>
      <point x="248" y="768"/>
      <point x="273" y="1069"/>
      <point x="273" y="1212" type="curve" smooth="yes"/>
      <point x="273" y="1287"/>
      <point x="260" y="1344"/>
      <point x="255" y="1461" type="curve"/>
      <point x="183" y="1461" type="line"/>
      <point x="178" y="1344"/>
      <point x="163" y="1287"/>
      <point x="163" y="1212" type="curve" smooth="yes"/>
      <point x="163" y="1069"/>
      <point x="188" y="768"/>
    </contour>
    <contour>
      <point x="218" y="-16" type="curve" smooth="yes"/>
      <point x="272" y="-16"/>
      <point x="307" y="21"/>
      <point x="307" y="74" type="curve" smooth="yes"/>
      <point x="307" y="127"/>
      <point x="272" y="162"/>
      <point x="218" y="162" type="curve" smooth="yes"/>
      <point x="164" y="162"/>
      <point x="129" y="127"/>
      <point x="129" y="74" type="curve" smooth="yes"/>
      <point x="129" y="21"/>
      <point x="164" y="-16"/>
    </contour>
  </outline>
</glyph>
<glyph name="quotedbl" format="2">
  <advance width="546"/>
  <unicode hex="0022"/>
  <note>
quotedbl
</note>
  <outline>
    <contour>
      <point x="340" y="824" type="line"/>
      <point x="405" y="824" type="line"/>
      <point x="425" y="1357" type="line"/>
      <point x="321" y="1357" type="line"/>
    </contour>
    <contour>
      <point x="140" y="824" type="line"/>
      <point x="205" y="824" type="line"/>
      <point x="226" y="1357" type="line"/>
      <point x="122" y="1357" type="line"/>
    </contour>
  </outline>
</glyph>
<glyph name="numbersign" format="2">
  <advance width="1385"/>
  <unicode hex="0023"/>
  <note>
numbersign
</note>
  <outline>
    <contour>
      <point x="784" y="0" type="line"/>
      <point x="881" y="0" type="line"/>
      <point x="1163" y="1430" type="line"/>
      <point x="1066" y="1430" type="line"/>
    </contour>
    <contour>
      <point x="124" y="481" type="line"/>
      <point x="1193" y="481" type="line"/>
      <point x="1193" y="555" type="line"/>
      <point x="124" y="555" type="line"/>
    </contour>
    <contour>
      <point x="247" y="0" type="line"/>
      <point x="343" y="0" type="line"/>
      <point x="626" y="1430" type="line"/>
      <point x="529" y="1430" type="line"/>
    </contour>
    <contour>
      <point x="192" y="882" type="line"/>
      <point x="1261" y="882" type="line"/>
      <point x="1261" y="956" type="line"/>
      <point x="192" y="956" type="line"/>
    </contour>
  </outline>
</glyph>
<glyph name="parenleft" format="2">
  <advance width="587"/>
  <unicode hex="0028"/>
  <note>
parenleft
</note>
  <outline>
    <contour>
      <point x="463" y="-401" type="curve"/>
      <point x="481" y="-336" type="line"/>
      <point x="313" y="-94"/>
      <point x="201" y="263"/>
      <point x="201" y="556" type="curve" smooth="yes"/>
      <point x="201" y="855"/>
      <point x="321" y="1234"/>
      <point x="487" y="1461" type="curve"/>
      <point x="457" y="1513" type="line"/>
      <point x="207" y="1164"/>
      <point x="108" y="894"/>
      <point x="108" y="556" type="curve" smooth="yes"/>
      <point x="108" y="209"/>
      <point x="212" y="-71"/>
    </contour>
  </outline>
</glyph>
<glyph name="parenright" format="2">
  <advance width="586"/>
  <unicode hex="0029"/>
  <note>
parenright
</note>
  <outline>
    <contour>
      <point x="124" y="-401" type="line"/>
      <point x="373" y="-72"/>
      <point x="478" y="209"/>
      <point x="478" y="556" type="curve" smooth="yes"/>
      <point x="478" y="894"/>
      <point x="379" y="1164"/>
      <point x="129" y="1514" type="curve"/>
      <point x="100" y="1461" type="line"/>
      <point x="267" y="1231"/>
      <point x="385" y="857"/>
      <point x="385" y="556" type="curve" smooth="yes"/>
      <point x="385" y="263"/>
      <point x="274" y="-92"/>
      <point x="106" y="-336" type="curve"/>
    </contour>
  </outline>
</glyph>
<glyph name="asterisk" format="2">
  <advance width="818"/>
  <unicode hex="002A"/>
  <note>
asterisk
</note>
  <outline>
    <contour>
      <point x="414" y="1146" type="line"/>
      <point x="520" y="1191"/>
      <point x="599" y="1208"/>
      <point x="633" y="1228" type="curve" smooth="yes"/>
      <point x="639" y="1232"/>
      <point x="661" y="1266"/>
      <point x="691" y="1284" type="curve"/>
      <point x="662" y="1333" type="line"/>
      <point x="631" y="1315"/>
      <point x="590" y="1312"/>
      <point x="586" y="1309" type="curve" smooth="yes"/>
      <point x="552" y="1289"/>
      <point x="495" y="1231"/>
      <point x="404" y="1162" type="curve"/>
    </contour>
    <contour>
      <point x="156" y="975" type="line"/>
      <point x="186" y="992"/>
      <point x="227" y="994"/>
      <point x="233" y="997" type="curve" smooth="yes"/>
      <point x="267" y="1017"/>
      <point x="321" y="1076"/>
      <point x="414" y="1146" type="curve"/>
      <point x="404" y="1162" type="line"/>
      <point x="299" y="1118"/>
      <point x="221" y="1098"/>
      <point x="186" y="1078" type="curve" smooth="yes"/>
      <point x="183" y="1076"/>
      <point x="158" y="1042"/>
      <point x="127" y="1024" type="curve"/>
    </contour>
    <contour>
      <point x="380" y="844" type="curve"/>
      <point x="437" y="844" type="line"/>
      <point x="437" y="879"/>
      <point x="456" y="915"/>
      <point x="456" y="922" type="curve" smooth="yes"/>
      <point x="456" y="965"/>
      <point x="432" y="1038"/>
      <point x="418" y="1153" type="curve"/>
      <point x="399" y="1153" type="line"/>
      <point x="385" y="1040"/>
      <point x="363" y="963"/>
      <point x="363" y="922" type="curve" smooth="yes"/>
      <point x="363" y="914"/>
      <point x="380" y="880"/>
    </contour>
    <contour>
      <point x="404" y="1146" type="curve"/>
      <point x="414" y="1162" type="line"/>
      <point x="323" y="1231"/>
      <point x="266" y="1289"/>
      <point x="232" y="1309" type="curve" smooth="yes"/>
      <point x="228" y="1312"/>
      <point x="187" y="1315"/>
      <point x="156" y="1333" type="curve"/>
      <point x="127" y="1284" type="line"/>
      <point x="157" y="1266"/>
      <point x="179" y="1232"/>
      <point x="185" y="1228" type="curve" smooth="yes"/>
      <point x="219" y="1208"/>
      <point x="298" y="1191"/>
    </contour>
    <contour>
      <point x="585" y="997" type="curve" smooth="yes"/>
      <point x="591" y="994"/>
      <point x="632" y="992"/>
      <point x="662" y="975" type="curve"/>
      <point x="691" y="1024" type="line"/>
      <point x="660" y="1042"/>
      <point x="635" y="1076"/>
      <point x="632" y="1078" type="curve" smooth="yes"/>
      <point x="597" y="1098"/>
      <point x="518" y="1118"/>
      <point x="414" y="1162" type="curve"/>
      <point x="404" y="1146" type="line"/>
      <point x="497" y="1076"/>
      <point x="551" y="1017"/>
    </contour>
    <contour>
      <point x="399" y="1153" type="curve"/>
      <point x="418" y="1153" type="line"/>
      <point x="432" y="1268"/>
      <point x="456" y="1341"/>
      <point x="456" y="1384" type="curve" smooth="yes"/>
      <point x="456" y="1391"/>
      <point x="437" y="1427"/>
      <point x="437" y="1462" type="curve"/>
      <point x="380" y="1462" type="line"/>
      <point x="380" y="1426"/>
      <point x="363" y="1392"/>
      <point x="363" y="1384" type="curve" smooth="yes"/>
      <point x="363" y="1343"/>
      <point x="385" y="1266"/>
    </contour>
  </outline>
</glyph>
<glyph name="comma" format="2">
  <advance width="469"/>
  <unicode hex="002C"/>
  <note>
comma
</note>
  <outline>
    <contour>
      <point x="132" y="-128" type="curve"/>
      <point x="228" y="-128" type="line"/>
      <point x="274" y="-38"/>
      <point x="311" y="61"/>
      <point x="340" y="177" type="curve"/>
      <point x="212" y="177" type="line"/>
      <point x="185" y="124"/>
      <point x="139" y="-52"/>
    </contour>
  </outline>
</glyph>
<glyph name="hyphen" format="2">
  <advance width="585"/>
  <unicode hex="002D"/>
  <note>
hyphen
</note>
  <outline>
    <contour>
      <point x="87" y="473" type="line"/>
      <point x="498" y="473" type="line"/>
      <point x="498" y="563" type="line"/>
      <point x="87" y="563" type="line"/>
    </contour>
  </outline>
</glyph>
<glyph name="zero" format="2">
  <advance width="1271"/>
  <unicode hex="0030"/>
  <note>
zero
</note>
  <anchor x="636" y="715" name="center"/>
  <outline>
    <contour>
      <point x="636" y="-26" type="curve" smooth="yes"/>
      <point x="948" y="-26"/>
      <point x="1162" y="277"/>
      <point x="1162" y="715" type="curve" smooth="yes"/>
      <point x="1162" y="1152"/>
      <point x="947" y="1455"/>
      <point x="636" y="1455" type="curve" smooth="yes"/>
      <point x="323" y="1455"/>
      <point x="109" y="1153"/>
      <point x="109" y="715" type="curve" smooth="yes"/>
      <point x="109" y="277"/>
      <point x="323" y="-26"/>
    </contour>
    <contour>
      <point x="636" y="52" type="curve" smooth="yes"/>
      <point x="376" y="52"/>
      <point x="212" y="304"/>
      <point x="212" y="715" type="curve" smooth="yes"/>
      <point x="212" y="1126"/>
      <point x="376" y="1378"/>
      <point x="636" y="1378" type="curve" smooth="yes"/>
      <point x="895" y="1378"/>
      <point x="1057" y="1125"/>
      <point x="1057" y="715" type="curve" smooth="yes"/>
      <point x="1057" y="304"/>
      <point x="895" y="52"/>
    </contour>
  </outline>
</glyph>
<glyph name="one" format="2">
  <advance width="539"/>
  <unicode hex="0031"/>
  <note>
one
</note>
  <outline>
    <contour>
      <point x="314" y="-1" type="line"/>
      <point x="402" y="-1" type="line"/>
      <point x="402" y="1430" type="line"/>
      <point x="371" y="1430" type="line"/>
      <point x="98" y="1019" type="line"/>
      <point x="156" y="978" type="line"/>
      <point x="383" y="1315" type="line"/>
      <point x="314" y="1322" type="line"/>
    </contour>
  </outline>
</glyph>
<glyph name="four" format="2">
  <advance width="1069"/>
  <unicode hex="0034"/>
  <note>
four
</note>
  <outline>
    <contour>
      <point x="704" y="0" type="line"/>
      <point x="792" y="0" type="line"/>
      <point x="792" y="466" type="line"/>
      <point x="647" y="371" type="line"/>
      <point x="969" y="371" type="line"/>
      <point x="969" y="448" type="line"/>
      <point x="647" y="448" type="line"/>
      <point x="792" y="408" type="line"/>
      <point x="792" y="928" type="line"/>
      <point x="704" y="928" type="line"/>
      <point x="704" y="408" type="line"/>
      <point x="803" y="448" type="line"/>
      <point x="177" y="448" type="line"/>
      <point x="228" y="429" type="line"/>
      <point x="391" y="744"/>
      <point x="471" y="983"/>
      <point x="546" y="1430" type="curve"/>
      <point x="462" y="1430" type="line"/>
      <point x="386" y="987"/>
      <point x="304" y="743"/>
      <point x="99" y="371" type="curve"/>
      <point x="803" y="371" type="line"/>
      <point x="704" y="466" type="line"/>
    </contour>
  </outline>
</glyph>
<glyph name="six" format="2">
  <advance width="1115"/>
  <unicode hex="0036"/>
  <note>
six
</note>
  <outline>
    <contour>
      <point x="535" y="-33" type="curve" smooth="yes"/>
      <point x="852" y="-37"/>
      <point x="1010" y="171"/>
      <point x="1010" y="445" type="curve" smooth="yes"/>
      <point x="1010" y="713"/>
      <point x="831" y="897"/>
      <point x="571" y="897" type="curve" smooth="yes"/>
      <point x="373" y="897"/>
      <point x="202" y="791"/>
      <point x="171" y="565" type="curve"/>
      <point x="205" y="586" type="line"/>
      <point x="202" y="768"/>
      <point x="233" y="954"/>
      <point x="376" y="1112" type="curve" smooth="yes"/>
      <point x="433" y="1175"/>
      <point x="583" y="1317"/>
      <point x="825" y="1362" type="curve"/>
      <point x="825" y="1435" type="line"/>
      <point x="594" y="1411"/>
      <point x="415" y="1263"/>
      <point x="344" y="1194" type="curve" smooth="yes"/>
      <point x="103" y="960"/>
      <point x="110" y="624"/>
      <point x="110" y="533" type="curve" smooth="yes"/>
      <point x="110" y="72"/>
      <point x="317" y="-30"/>
    </contour>
    <contour>
      <point x="553" y="44" type="curve" smooth="yes"/>
      <point x="315" y="47"/>
      <point x="205" y="254"/>
      <point x="209" y="462" type="curve" smooth="yes"/>
      <point x="213" y="714"/>
      <point x="395" y="819"/>
      <point x="580" y="819" type="curve" smooth="yes"/>
      <point x="856" y="819"/>
      <point x="914" y="578"/>
      <point x="914" y="429" type="curve" smooth="yes"/>
      <point x="914" y="187"/>
      <point x="755" y="41"/>
    </contour>
  </outline>
</glyph>
<glyph name="seven" format="2">
  <advance width="1023"/>
  <unicode hex="0037"/>
  <note>
seven
</note>
  <outline>
    <contour>
      <point x="292" y="0" type="curve"/>
      <point x="384" y="0" type="line"/>
      <point x="460" y="567"/>
      <point x="624" y="1000"/>
      <point x="925" y="1416" type="curve"/>
      <point x="101" y="1416" type="line"/>
      <point x="101" y="1312" type="line"/>
      <point x="820" y="1312" type="line"/>
      <point x="783" y="1347" type="line"/>
      <point x="558" y="977"/>
      <point x="376" y="557"/>
    </contour>
  </outline>
</glyph>
<glyph name="greater" format="2">
  <advance width="1081"/>
  <unicode hex="003E"/>
  <note>
greater
</note>
  <outline>
    <contour>
      <point x="138" y="348" type="line"/>
      <point x="876" y="651" type="line"/>
      <point x="876" y="718" type="line"/>
      <point x="138" y="1020" type="line"/>
      <point x="138" y="932" type="line"/>
      <point x="743" y="684" type="line"/>
      <point x="138" y="436" type="line"/>
    </contour>
  </outline>
</glyph>
<glyph name="question" format="2">
  <advance width="1012"/>
  <unicode hex="003F"/>
  <note>
question
</note>
  <outline>
    <contour>
      <point x="431" y="315" type="curve"/>
      <point x="511" y="315" type="line"/>
      <point x="505" y="437"/>
      <point x="507" y="503"/>
      <point x="507" y="574" type="curve" smooth="yes"/>
      <point x="507" y="790"/>
      <point x="884" y="828"/>
      <point x="884" y="1172" type="curve" smooth="yes"/>
      <point x="884" y="1362"/>
      <point x="750" y="1462"/>
      <point x="498" y="1462" type="curve" smooth="yes"/>
      <point x="249" y="1462"/>
      <point x="125" y="1364"/>
      <point x="125" y="1165" type="curve" smooth="yes"/>
      <point x="125" y="1149"/>
      <point x="125" y="1130"/>
      <point x="125" y="1107" type="curve"/>
      <point x="229" y="1107" type="line"/>
      <point x="223" y="1122"/>
      <point x="224" y="1135"/>
      <point x="224" y="1168" type="curve" smooth="yes"/>
      <point x="224" y="1301"/>
      <point x="328" y="1386"/>
      <point x="495" y="1386" type="curve" smooth="yes"/>
      <point x="682" y="1386"/>
      <point x="776" y="1304"/>
      <point x="776" y="1144" type="curve" smooth="yes"/>
      <point x="776" y="860"/>
      <point x="417" y="880"/>
      <point x="417" y="563" type="curve" smooth="yes"/>
      <point x="417" y="490"/>
      <point x="429" y="411"/>
    </contour>
    <contour>
      <point x="480" y="-16" type="curve" smooth="yes"/>
      <point x="534" y="-16"/>
      <point x="569" y="21"/>
      <point x="569" y="74" type="curve" smooth="yes"/>
      <point x="569" y="127"/>
      <point x="534" y="162"/>
      <point x="480" y="162" type="curve" smooth="yes"/>
      <point x="426" y="162"/>
      <point x="391" y="127"/>
      <point x="391" y="74" type="curve" smooth="yes"/>
      <point x="391" y="21"/>
      <point x="426" y="-16"/>
    </contour>
  </outline>
</glyph>
<glyph name="B" format="2">
  <advance width="1165"/>
  <unicode hex="0042"/>
  <note>
B
</note>
  <anchor x="583" y="-20" name="bottom"/>
  <anchor x="583" y="1430" name="top"/>
  <outline>
    <contour>
      <point x="143" y="0" type="line"/>
      <point x="557" y="0" type="line" smooth="yes"/>
      <point x="871" y="0"/>
      <point x="1055" y="148"/>
      <point x="1055" y="401" type="curve" smooth="yes"/>
      <point x="1055" y="609"/>
      <point x="921" y="767"/>
      <point x="717" y="784" type="curve"/>
      <point x="725" y="727" type="line"/>
      <point x="900" y="764"/>
      <point x="1007" y="890"/>
      <point x="1007" y="1058" type="curve" smooth="yes"/>
      <point x="1007" y="1279"/>
      <point x="832" y="1430"/>
      <point x="575" y="1430" type="curve" smooth="yes"/>
      <point x="143" y="1430" type="line"/>
    </contour>
    <contour>
      <point x="226" y="13" type="line"/>
      <point x="226" y="777" type="line"/>
      <point x="182" y="720" type="line"/>
      <point x="592" y="720" type="line" smooth="yes"/>
      <point x="818" y="720"/>
      <point x="963" y="601"/>
      <point x="963" y="410" type="curve" smooth="yes"/>
      <point x="963" y="199"/>
      <point x="800" y="77"/>
      <point x="519" y="77" type="curve" smooth="yes"/>
      <point x="189" y="77" type="line"/>
    </contour>
    <contour>
      <point x="226" y="736" type="line"/>
      <point x="226" y="1418" type="line"/>
      <point x="150" y="1353" type="line"/>
      <point x="557" y="1353" type="line" smooth="yes"/>
      <point x="783" y="1353"/>
      <point x="916" y="1244"/>
      <point x="916" y="1050" type="curve" smooth="yes"/>
      <point x="916" y="864"/>
      <point x="777" y="793"/>
      <point x="575" y="793" type="curve" smooth="yes"/>
      <point x="171" y="793" type="line"/>
    </contour>
  </outline>
</glyph>
<glyph name="C" format="2">
  <advance width="1462"/>
  <unicode hex="0043"/>
  <note>
C
</note>
  <anchor x="731" y="-20" name="bottom"/>
  <anchor x="781" y="1430" name="top"/>
  <outline>
    <contour>
      <point x="794" y="-10" type="curve" smooth="yes"/>
      <point x="1048" y="-10"/>
      <point x="1219" y="101"/>
      <point x="1356" y="349" type="curve"/>
      <point x="1262" y="349" type="line"/>
      <point x="1167" y="169"/>
      <point x="1003" y="69"/>
      <point x="798" y="69" type="curve" smooth="yes"/>
      <point x="451" y="69"/>
      <point x="212" y="333"/>
      <point x="212" y="717" type="curve" smooth="yes"/>
      <point x="212" y="1102"/>
      <point x="448" y="1364"/>
      <point x="792" y="1364" type="curve" smooth="yes"/>
      <point x="1003" y="1364"/>
      <point x="1187" y="1260"/>
      <point x="1265" y="1087" type="curve"/>
      <point x="1356" y="1087" type="line"/>
      <point x="1249" y="1324"/>
      <point x="1051" y="1443"/>
      <point x="794" y="1443" type="curve" smooth="yes"/>
      <point x="392" y="1443"/>
      <point x="114" y="1145"/>
      <point x="114" y="716" type="curve" smooth="yes"/>
      <point x="114" y="279"/>
      <point x="384" y="-10"/>
    </contour>
  </outline>
</glyph>
<glyph name="F" format="2">
  <advance width="1046"/>
  <unicode hex="0046"/>
  <note>
F
</note>
  <anchor x="523" y="-20" name="bottom"/>
  <anchor x="523" y="1430" name="top"/>
  <outline>
    <contour>
      <point x="143" y="0" type="line"/>
      <point x="226" y="0" type="line"/>
      <point x="226" y="759" type="line"/>
      <point x="193" y="689" type="line"/>
      <point x="936" y="689" type="line"/>
      <point x="936" y="766" type="line"/>
      <point x="169" y="766" type="line"/>
      <point x="226" y="703" type="line"/>
      <point x="226" y="1419" type="line"/>
      <point x="179" y="1353" type="line"/>
      <point x="936" y="1353" type="line"/>
      <point x="936" y="1430" type="line"/>
      <point x="143" y="1430" type="line"/>
    </contour>
  </outline>
</glyph>
<glyph name="H" format="2">
  <advance width="1473"/>
  <unicode hex="0048"/>
  <note>
H
</note>
  <anchor x="737" y="-20" name="bottom"/>
  <anchor x="737" y="715" name="center"/>
  <anchor x="737" y="1430" name="top"/>
  <anchor x="-5" y="1430" name="topleft"/>
  <outline>
    <contour>
      <point x="143" y="0" type="line"/>
      <point x="232" y="0" type="line"/>
      <point x="232" y="750" type="line"/>
      <point x="166" y="693" type="line"/>
      <point x="1291" y="693" type="line"/>
      <point x="1242" y="750" type="line"/>
      <point x="1242" y="0" type="line"/>
      <point x="1330" y="0" type="line"/>
      <point x="1330" y="1430" type="line"/>
      <point x="1242" y="1430" type="line"/>
      <point x="1242" y="713" type="line"/>
      <point x="1291" y="770" type="line"/>
      <point x="166" y="770" type="line"/>
      <point x="232" y="713" type="line"/>
      <point x="232" y="1430" type="line"/>
      <point x="143" y="1430" type="line"/>
    </contour>
  </outline>
</glyph>
<glyph name="L" format="2">
  <advance width="1016"/>
  <unicode hex="004C"/>
  <note>
L
</note>
  <anchor x="508" y="-20" name="bottom"/>
  <anchor x="178" y="715" name="center"/>
  <anchor x="637" y="775" name="dot"/>
  <anchor x="957" y="10" name="ogonek"/>
  <anchor x="308" y="1430" name="top"/>
  <anchor x="-44" y="1430" name="topleft"/>
  <anchor x="721" y="1430" name="topright"/>
  <outline>
    <contour>
      <point x="143" y="0" type="line"/>
      <point x="910" y="0" type="line"/>
      <point x="910" y="77" type="line"/>
      <point x="181" y="77" type="line"/>
      <point x="231" y="15" type="line"/>
      <point x="231" y="1430" type="line"/>
      <point x="143" y="1430" type="line"/>
    </contour>
  </outline>
</glyph>
<glyph name="M" format="2">
  <advance width="1656"/>
  <unicode hex="004D"/>
  <note>
M
</note>
  <guideline x="411" y="856" angle="112.9199"/>
  <guideline x="1009" y="711" angle="247.1086"/>
  <guideline x="555" y="730" angle="111.5953"/>
  <guideline x="1108" y="730" angle="248.2128"/>
  <guideline x="1068" y="689" angle="68.3561"/>
  <guideline x="491" y="712" angle="292.8657"/>
  <anchor x="828" y="-20" name="bottom"/>
  <anchor x="828" y="1430" name="top"/>
  <outline>
    <contour>
      <point x="143" y="0" type="line"/>
      <point x="226" y="0" type="line"/>
      <point x="226" y="1405" type="line"/>
      <point x="186" y="1398" type="line"/>
      <point x="828" y="85" type="line"/>
      <point x="1470" y="1399" type="line"/>
      <point x="1430" y="1405" type="line"/>
      <point x="1430" y="0" type="line"/>
      <point x="1513" y="0" type="line"/>
      <point x="1513" y="1430" type="line"/>
      <point x="1380" y="1430" type="line"/>
      <point x="786" y="215" type="line"/>
      <point x="870" y="215" type="line"/>
      <point x="276" y="1430" type="line"/>
      <point x="143" y="1430" type="line"/>
    </contour>
  </outline>
</glyph>
<glyph name="N" format="2">
  <advance width="1525"/>
  <unicode hex="004E"/>
  <note>
N
</note>
  <anchor x="763" y="-20" name="bottom"/>
  <anchor x="763" y="1430" name="top"/>
  <outline>
    <contour>
      <point x="143" y="0" type="line"/>
      <point x="226" y="0" type="line"/>
      <point x="226" y="1381" type="line"/>
      <point x="194" y="1359" type="line"/>
      <point x="1266" y="0" type="line"/>
      <point x="1382" y="0" type="line"/>
      <point x="1382" y="1430" type="line"/>
      <point x="1299" y="1430" type="line"/>
      <point x="1299" y="49" type="line"/>
      <point x="1319" y="91" type="line"/>
      <point x="269" y="1430" type="line"/>
      <point x="143" y="1430" type="line"/>
    </contour>
  </outline>
</glyph>
<glyph name="P" format="2">
  <advance width="1048"/>
  <unicode hex="0050"/>
  <note>
P
</note>
  <anchor x="524" y="-20" name="bottom"/>
  <anchor x="524" y="1430" name="top"/>
  <outline>
    <contour>
      <point x="143" y="0" type="line"/>
      <point x="226" y="0" type="line"/>
      <point x="226" y="653" type="line"/>
      <point x="154" y="593" type="line"/>
      <point x="435" y="593" type="line" smooth="yes"/>
      <point x="596" y="593"/>
      <point x="718" y="625"/>
      <point x="801" y="690" type="curve" smooth="yes"/>
      <point x="892" y="761"/>
      <point x="937" y="869"/>
      <point x="937" y="1016" type="curve" smooth="yes"/>
      <point x="937" y="1148"/>
      <point x="901" y="1248"/>
      <point x="827" y="1316" type="curve" smooth="yes"/>
      <point x="744" y="1393"/>
      <point x="614" y="1430"/>
      <point x="436" y="1430" type="curve" smooth="yes"/>
      <point x="143" y="1430" type="line"/>
    </contour>
    <contour>
      <point x="226" y="610" type="line"/>
      <point x="226" y="1416" type="line"/>
      <point x="171" y="1353" type="line"/>
      <point x="391" y="1353" type="line" smooth="yes"/>
      <point x="711" y="1353"/>
      <point x="848" y="1251"/>
      <point x="848" y="1014" type="curve" smooth="yes"/>
      <point x="848" y="773"/>
      <point x="711" y="670"/>
      <point x="391" y="670" type="curve" smooth="yes"/>
      <point x="152" y="670" type="line"/>
    </contour>
  </outline>
</glyph>
<glyph name="Q" format="2">
  <advance width="1560"/>
  <unicode hex="0051"/>
  <note>
Q
</note>
  <anchor x="736" y="5" name="bottom"/>
  <anchor x="736" y="1405" name="top"/>
  <anchor x="780" y="742.0049999999999" name="center"/>
  <anchor x="860" y="22.0" name="ogonek"/>
  <anchor x="-5" y="1462.0099999999998" name="topleft"/>
  <anchor x="1395" y="1462.0099999999998" name="topright"/>
  <outline>
    <contour>
      <point x="989" y="-371" type="curve" smooth="yes"/>
      <point x="1065" y="-371"/>
      <point x="1079" y="-366"/>
      <point x="1079" y="-290" type="curve"/>
      <point x="1063" y="-290"/>
      <point x="1046" y="-290"/>
      <point x="1030" y="-290" type="curve" smooth="yes"/>
      <point x="855" y="-290"/>
      <point x="762" y="-236"/>
      <point x="762" y="-137" type="curve" smooth="yes"/>
      <point x="762" y="51" type="line"/>
      <point x="692" y="51" type="line"/>
      <point x="692" y="-147" type="line" smooth="yes"/>
      <point x="692" y="-250"/>
      <point x="751" y="-308"/>
      <point x="792" y="-330" type="curve" smooth="yes"/>
      <point x="848" y="-360"/>
      <point x="899" y="-371"/>
    </contour>
    <component base="O" yScale="1.007" yOffset="22"/>
  </outline>
</glyph>
<glyph name="R" format="2">
  <advance width="1101"/>
  <unicode hex="0052"/>
  <note>
R
</note>
  <anchor x="551" y="-20" name="bottom"/>
  <anchor x="551" y="1430" name="top"/>
  <outline>
    <contour>
      <point x="143" y="0" type="line"/>
      <point x="226" y="0" type="line"/>
      <point x="226" y="673" type="line"/>
      <point x="186" y="633" type="line"/>
      <point x="451" y="633" type="line"/>
      <point x="558" y="633" type="line"/>
      <point x="802" y="683"/>
      <point x="937" y="793"/>
      <point x="937" y="1036" type="curve" smooth="yes"/>
      <point x="937" y="1316"/>
      <point x="743" y="1430"/>
      <point x="436" y="1430" type="curve" smooth="yes"/>
      <point x="143" y="1430" type="line"/>
    </contour>
    <contour>
      <point x="186" y="710" type="line"/>
      <point x="226" y="670" type="line"/>
      <point x="226" y="1393" type="line"/>
      <point x="186" y="1353" type="line"/>
      <point x="391" y="1353" type="line" smooth="yes"/>
      <point x="711" y="1353"/>
      <point x="848" y="1271"/>
      <point x="848" y="1034" type="curve" smooth="yes"/>
      <point x="848" y="793"/>
      <point x="711" y="710"/>
      <point x="391" y="710" type="curve" smooth="yes"/>
    </contour>
    <contour>
      <point x="435" y="633" type="line"/>
      <point x="521" y="633"/>
      <point x="645" y="618"/>
      <point x="701" y="578" type="curve" smooth="yes"/>
      <point x="770" y="529"/>
      <point x="786" y="511"/>
      <point x="850" y="221" type="curve" smooth="yes"/>
      <point x="866" y="147"/>
      <point x="882" y="74"/>
      <point x="898" y="0" type="curve"/>
      <point x="995" y="0" type="line"/>
      <point x="968" y="97"/>
      <point x="941" y="221"/>
      <point x="925" y="296" type="curve" smooth="yes"/>
      <point x="880" y="503"/>
      <point x="842" y="572"/>
      <point x="793" y="620" type="curve" smooth="yes"/>
      <point x="765" y="648"/>
      <point x="727" y="667"/>
      <point x="688" y="681" type="curve"/>
    </contour>
  </outline>
</glyph>
<glyph name="S" format="2">
  <advance width="1175"/>
  <unicode hex="0053"/>
  <note>
S
</note>
  <anchor x="588" y="-20" name="bottom"/>
  <anchor x="588" y="1430" name="top"/>
  <outline>
    <contour>
      <point x="589" y="-25" type="curve" smooth="yes"/>
      <point x="917" y="-25"/>
      <point x="1064" y="120"/>
      <point x="1064" y="394" type="curve" smooth="yes"/>
      <point x="1064" y="632"/>
      <point x="842" y="735"/>
      <point x="620" y="804" type="curve" smooth="yes"/>
      <point x="295" y="905"/>
      <point x="263" y="968"/>
      <point x="263" y="1119" type="curve" smooth="yes"/>
      <point x="263" y="1297"/>
      <point x="417" y="1384"/>
      <point x="569" y="1384" type="curve" smooth="yes"/>
      <point x="781" y="1384"/>
      <point x="939" y="1240"/>
      <point x="940" y="1107" type="curve"/>
      <point x="1035" y="1107" type="line"/>
      <point x="1025" y="1321"/>
      <point x="807" y="1463"/>
      <point x="578" y="1463" type="curve" smooth="yes"/>
      <point x="328" y="1463"/>
      <point x="165" y="1306"/>
      <point x="165" y="1088" type="curve" smooth="yes"/>
      <point x="165" y="883"/>
      <point x="301" y="801"/>
      <point x="564" y="720" type="curve" smooth="yes"/>
      <point x="770" y="657"/>
      <point x="964" y="602"/>
      <point x="964" y="368" type="curve" smooth="yes"/>
      <point x="964" y="183"/>
      <point x="846" y="54"/>
      <point x="595" y="54" type="curve" smooth="yes"/>
      <point x="360" y="54"/>
      <point x="229" y="179"/>
      <point x="205" y="414" type="curve"/>
      <point x="107" y="414" type="line"/>
      <point x="129" y="125"/>
      <point x="313" y="-25"/>
    </contour>
  </outline>
</glyph>
<glyph name="T" format="2">
  <advance width="1383"/>
  <unicode hex="0054"/>
  <note>
T
</note>
  <anchor x="692" y="-20" name="bottom"/>
  <anchor x="692" y="715" name="center"/>
  <anchor x="692" y="1430" name="top"/>
  <outline>
    <contour>
      <point x="649" y="0" type="line"/>
      <point x="734" y="0" type="line"/>
      <point x="734" y="1417" type="line"/>
      <point x="595" y="1353" type="line"/>
      <point x="1277" y="1353" type="line"/>
      <point x="1277" y="1430" type="line"/>
      <point x="106" y="1430" type="line"/>
      <point x="106" y="1353" type="line"/>
      <point x="788" y="1353" type="line"/>
      <point x="649" y="1417" type="line"/>
    </contour>
  </outline>
</glyph>
<glyph name="V" format="2">
  <advance width="1478"/>
  <unicode hex="0056"/>
  <note>
V
</note>
  <anchor x="739" y="-20" name="bottom"/>
  <anchor x="739" y="1430" name="top"/>
  <outline>
    <contour>
      <point x="738" y="-36" type="line"/>
      <point x="1373" y="1430" type="line"/>
      <point x="1284" y="1430" type="line"/>
      <point x="699" y="80" type="line"/>
      <point x="776" y="73" type="line"/>
      <point x="190" y="1430" type="line"/>
      <point x="105" y="1430" type="line"/>
    </contour>
  </outline>
</glyph>
<glyph name="X" format="2">
  <advance width="1347"/>
  <unicode hex="0058"/>
  <note>
X
</note>
  <anchor x="674" y="-20" name="bottom"/>
  <anchor x="674" y="1430" name="top"/>
  <outline>
    <contour>
      <point x="1135" y="0" type="line"/>
      <point x="1242" y="0" type="line"/>
      <point x="250" y="1428" type="line"/>
      <point x="142" y="1428" type="line"/>
    </contour>
    <contour>
      <point x="105" y="0" type="line"/>
      <point x="186" y="0" type="line"/>
      <point x="701" y="728" type="line"/>
      <point x="644" y="765" type="line"/>
    </contour>
    <contour>
      <point x="706" y="715" type="line"/>
      <point x="1206" y="1430" type="line"/>
      <point x="1125" y="1430" type="line"/>
      <point x="649" y="752" type="line"/>
    </contour>
  </outline>
</glyph>
<glyph name="Y" format="2">
  <advance width="1276"/>
  <unicode hex="0059"/>
  <note>
Y
</note>
  <guideline x="763" y="1192" angle="245.6375"/>
  <guideline x="292" y="1004" angle="294.3172"/>
  <anchor x="643" y="0" name="bottom"/>
  <anchor x="638" y="1430" name="top"/>
  <anchor x="-5" y="1430" name="topleft"/>
  <outline>
    <contour>
      <point x="601" y="0" type="line"/>
      <point x="684" y="0" type="line"/>
      <point x="684" y="620" type="line"/>
      <point x="1171" y="1430" type="line"/>
      <point x="1074" y="1430" type="line"/>
      <point x="619" y="665" type="line"/>
      <point x="685" y="649" type="line"/>
      <point x="214" y="1430" type="line"/>
      <point x="105" y="1430" type="line"/>
      <point x="601" y="610" type="line"/>
    </contour>
  </outline>
</glyph>
<glyph name="bracketleft" format="2">
  <advance width="612"/>
  <unicode hex="005B"/>
  <note>
bracketleft
</note>
  <outline>
    <contour>
      <point x="138" y="-388" type="line"/>
      <point x="509" y="-388" type="line"/>
      <point x="509" y="-296" type="line"/>
      <point x="229" y="-296" type="line"/>
      <point x="229" y="1369" type="line"/>
      <point x="509" y="1369" type="line"/>
      <point x="509" y="1461" type="line"/>
      <point x="138" y="1461" type="line"/>
    </contour>
  </outline>
</glyph>
<glyph name="bracketright" format="2">
  <advance width="612"/>
  <unicode hex="005D"/>
  <note>
bracketright
</note>
  <outline>
    <contour>
      <point x="103" y="-388" type="line"/>
      <point x="474" y="-388" type="line"/>
      <point x="474" y="1461" type="line"/>
      <point x="103" y="1461" type="line"/>
      <point x="103" y="1369" type="line"/>
      <point x="383" y="1369" type="line"/>
      <point x="383" y="-296" type="line"/>
      <point x="103" y="-296" type="line"/>
    </contour>
  </outline>
</glyph>
<glyph name="asciicircum" format="2">
  <advance width="1046"/>
  <unicode hex="005E"/>
  <note>
asciicircum
</note>
  <outline>
    <contour>
      <point x="136" y="826" type="line"/>
      <point x="222" y="826" type="line"/>
      <point x="550" y="1376" type="line"/>
      <point x="500" y="1368" type="line"/>
      <point x="824" y="826" type="line"/>
      <point x="910" y="826" type="line"/>
      <point x="534" y="1453" type="line"/>
      <point x="510" y="1453" type="line"/>
    </contour>
  </outline>
</glyph>
<glyph name="c" format="2">
  <advance width="929"/>
  <unicode hex="0063"/>
  <note>
c
</note>
  <anchor x="465" y="0" name="bottom"/>
  <anchor x="555" y="1009" name="top"/>
  <outline>
    <contour>
      <point x="566" y="-28" type="curve" smooth="yes"/>
      <point x="669" y="-28"/>
      <point x="760" y="-1"/>
      <point x="845" y="53" type="curve"/>
      <point x="845" y="168" type="line"/>
      <point x="780" y="98"/>
      <point x="673" y="53"/>
      <point x="566" y="53" type="curve" smooth="yes"/>
      <point x="340" y="53"/>
      <point x="174" y="237"/>
      <point x="174" y="500" type="curve" smooth="yes"/>
      <point x="174" y="754"/>
      <point x="341" y="935"/>
      <point x="567" y="935" type="curve" smooth="yes"/>
      <point x="671" y="935"/>
      <point x="782" y="891"/>
      <point x="844" y="822" type="curve"/>
      <point x="844" y="935" type="line"/>
      <point x="758" y="989"/>
      <point x="665" y="1016"/>
      <point x="565" y="1016" type="curve" smooth="yes"/>
      <point x="329" y="1016"/>
      <point x="85" y="843"/>
      <point x="85" y="499" type="curve" smooth="yes"/>
      <point x="85" y="145"/>
      <point x="328" y="-28"/>
    </contour>
  </outline>
</glyph>
<glyph name="e" format="2">
  <advance width="1047"/>
  <unicode hex="0065"/>
  <note>
e
</note>
  <anchor x="524" y="-20" name="bottom"/>
  <anchor x="669" y="10" name="ogonek"/>
  <anchor x="524" y="1009" name="top"/>
  <outline>
    <contour>
      <point x="527" y="-28" type="curve" smooth="yes"/>
      <point x="738" y="-28"/>
      <point x="892" y="98"/>
      <point x="951" y="321" type="curve"/>
      <point x="868" y="321" type="line"/>
      <point x="824" y="154"/>
      <point x="696" y="53"/>
      <point x="529" y="53" type="curve" smooth="yes"/>
      <point x="311" y="53"/>
      <point x="178" y="218"/>
      <point x="178" y="491" type="curve" smooth="yes"/>
      <point x="178" y="764"/>
      <point x="313" y="936"/>
      <point x="527" y="936" type="curve" smooth="yes"/>
      <point x="731" y="936"/>
      <point x="869" y="780"/>
      <point x="889" y="522" type="curve"/>
      <point x="967" y="522" type="line"/>
      <point x="951" y="822"/>
      <point x="778" y="1016"/>
      <point x="527" y="1016" type="curve" smooth="yes"/>
      <point x="266" y="1016"/>
      <point x="85" y="796"/>
      <point x="85" y="482" type="curve" smooth="yes"/>
      <point x="85" y="177"/>
      <point x="262" y="-28"/>
    </contour>
    <contour>
      <point x="127" y="522" type="line"/>
      <point x="939" y="522" type="line"/>
      <point x="936" y="597" type="line"/>
      <point x="127" y="597" type="line"/>
    </contour>
  </outline>
</glyph>
<glyph name="k" format="2">
  <advance width="965"/>
  <unicode hex="006B"/>
  <note>
k
</note>
  <guideline x="567" y="226" angle="315.2524"/>
  <anchor x="435" y="0" name="bottom"/>
  <anchor x="485" y="1514" name="top"/>
  <outline>
    <contour>
      <point x="116" y="0" type="line"/>
      <point x="202" y="0" type="line"/>
      <point x="202" y="1514" type="line"/>
      <point x="116" y="1514" type="line"/>
    </contour>
    <contour>
      <point x="760" y="0" type="line"/>
      <point x="891" y="0" type="line"/>
      <point x="314" y="622" type="line"/>
      <point x="251" y="549" type="line"/>
    </contour>
    <contour>
      <point x="194" y="400" type="line"/>
      <point x="798" y="990" type="line"/>
      <point x="682" y="990" type="line"/>
      <point x="132" y="453" type="line"/>
    </contour>
  </outline>
</glyph>
<glyph name="l" format="2">
  <advance width="315"/>
  <unicode hex="006C"/>
  <note>
l
</note>
  <anchor x="73" y="0" name="bottom"/>
  <anchor x="164" y="788" name="center"/>
  <anchor x="437" y="788" name="dot"/>
  <anchor x="229" y="1514" name="top"/>
  <anchor x="319" y="1481" name="topright"/>
  <outline>
    <contour>
      <point x="116" y="0" type="line"/>
      <point x="199" y="0" type="line"/>
      <point x="199" y="1514" type="line"/>
      <point x="116" y="1514" type="line"/>
    </contour>
  </outline>
</glyph>
<glyph name="o" format="2">
  <advance width="1066"/>
  <unicode hex="006F"/>
  <note>
o
</note>
  <anchor x="533" y="-20" name="bottom"/>
  <anchor x="533" y="495" name="center"/>
  <anchor x="648" y="0" name="ogonek"/>
  <anchor x="533" y="1009" name="top"/>
  <anchor x="1066" y="989" name="topright"/>
  <outline>
    <contour>
      <point x="532" y="-28" type="curve" smooth="yes"/>
      <point x="800" y="-28"/>
      <point x="981" y="179"/>
      <point x="981" y="482" type="curve" smooth="yes"/>
      <point x="981" y="791"/>
      <point x="794" y="1016"/>
      <point x="532" y="1016" type="curve" smooth="yes"/>
      <point x="271" y="1016"/>
      <point x="85" y="792"/>
      <point x="85" y="482" type="curve" smooth="yes"/>
      <point x="85" y="178"/>
      <point x="265" y="-28"/>
    </contour>
    <contour>
      <point x="532" y="54" type="curve" smooth="yes"/>
      <point x="317" y="54"/>
      <point x="182" y="221"/>
      <point x="182" y="491" type="curve" smooth="yes"/>
      <point x="182" y="758"/>
      <point x="322" y="935"/>
      <point x="532" y="935" type="curve" smooth="yes"/>
      <point x="741" y="935"/>
      <point x="882" y="753"/>
      <point x="882" y="482" type="curve" smooth="yes"/>
      <point x="882" y="215"/>
      <point x="750" y="54"/>
    </contour>
  </outline>
</glyph>
<glyph name="s" format="2">
  <advance width="845"/>
  <unicode hex="0073"/>
  <note>
s
</note>
  <anchor x="363" y="-20" name="bottom"/>
  <anchor x="423" y="1009" name="top"/>
  <outline>
    <contour>
      <point x="393" y="-25" type="curve" smooth="yes"/>
      <point x="628" y="-25"/>
      <point x="765" y="97"/>
      <point x="765" y="276" type="curve" smooth="yes"/>
      <point x="765" y="432"/>
      <point x="644" y="514"/>
      <point x="410" y="561" type="curve" smooth="yes"/>
      <point x="207" y="602"/>
      <point x="180" y="685"/>
      <point x="180" y="761" type="curve" smooth="yes"/>
      <point x="180" y="893"/>
      <point x="293" y="937"/>
      <point x="432" y="937" type="curve" smooth="yes"/>
      <point x="568" y="937"/>
      <point x="646" y="882"/>
      <point x="713" y="835" type="curve"/>
      <point x="713" y="933" type="line"/>
      <point x="630" y="986"/>
      <point x="547" y="1016"/>
      <point x="430" y="1016" type="curve" smooth="yes"/>
      <point x="228" y="1016"/>
      <point x="101" y="918"/>
      <point x="101" y="761" type="curve" smooth="yes"/>
      <point x="101" y="603"/>
      <point x="176" y="526"/>
      <point x="398" y="482" type="curve" smooth="yes"/>
      <point x="611" y="440"/>
      <point x="681" y="363"/>
      <point x="681" y="258" type="curve" smooth="yes"/>
      <point x="681" y="128"/>
      <point x="555" y="57"/>
      <point x="392" y="57" type="curve" smooth="yes"/>
      <point x="238" y="57"/>
      <point x="143" y="126"/>
      <point x="83" y="182" type="curve"/>
      <point x="82" y="74" type="line"/>
      <point x="158" y="16"/>
      <point x="263" y="-25"/>
    </contour>
  </outline>
</glyph>
<glyph name="t" format="2">
  <advance width="741"/>
  <unicode hex="0074"/>
  <note>
t
</note>
  <anchor x="425" y="-10" name="bottom"/>
  <anchor x="335" y="625" name="center"/>
  <anchor x="385" y="989" name="top"/>
  <anchor x="740" y="1389" name="topright"/>
  <outline>
    <contour>
      <point x="457" y="-27" type="curve" smooth="yes"/>
      <point x="514" y="-27"/>
      <point x="603" y="-14"/>
      <point x="662" y="-1" type="curve"/>
      <point x="662" y="83" type="line"/>
      <point x="625" y="76"/>
      <point x="554" y="54"/>
      <point x="483" y="54" type="curve" smooth="yes"/>
      <point x="358" y="54"/>
      <point x="373" y="136"/>
      <point x="373" y="245" type="curve" smooth="yes"/>
      <point x="373" y="906" type="line"/>
      <point x="639" y="906" type="line"/>
      <point x="639" y="988" type="line"/>
      <point x="373" y="988" type="line"/>
      <point x="373" y="1278" type="line"/>
      <point x="318" y="1278" type="line"/>
      <point x="320" y="1010"/>
      <point x="335" y="987"/>
      <point x="77" y="988" type="curve"/>
      <point x="77" y="906" type="line"/>
      <point x="286" y="906" type="line"/>
      <point x="286" y="231" type="line" smooth="yes"/>
      <point x="286" y="135"/>
      <point x="277" y="-27"/>
    </contour>
  </outline>
</glyph>
<glyph name="u" format="2">
  <advance width="1032"/>
  <unicode hex="0075"/>
  <note>
u
</note>
  <anchor x="477" y="-20" name="bottom"/>
  <anchor x="879" y="0" name="ogonek"/>
  <anchor x="517" y="989" name="top"/>
  <anchor x="1183" y="989" name="topright"/>
  <outline>
    <contour>
      <point x="451" y="-28" type="curve" smooth="yes"/>
      <point x="683" y="-28"/>
      <point x="825" y="106"/>
      <point x="868" y="404" type="curve"/>
      <point x="837" y="353" type="line"/>
      <point x="837" y="0" type="line"/>
      <point x="923" y="0" type="line"/>
      <point x="923" y="990" type="line"/>
      <point x="837" y="990" type="line"/>
      <point x="837" y="524" type="line" smooth="yes"/>
      <point x="837" y="216"/>
      <point x="707" y="53"/>
      <point x="463" y="53" type="curve" smooth="yes"/>
      <point x="248" y="53"/>
      <point x="188" y="178"/>
      <point x="188" y="362" type="curve" smooth="yes"/>
      <point x="188" y="990" type="line"/>
      <point x="102" y="990" type="line"/>
      <point x="102" y="327" type="line" smooth="yes"/>
      <point x="102" y="101"/>
      <point x="226" y="-28"/>
    </contour>
  </outline>
</glyph>
<glyph name="v" format="2">
  <advance width="1082"/>
  <unicode hex="0076"/>
  <note>
v
</note>
  <guideline x="782" y="525" angle="246.2505"/>
  <guideline x="167" y="689" angle="114.2118"/>
  <guideline x="770" y="524" angle="246.4287"/>
  <anchor x="541" y="-20" name="bottom"/>
  <anchor x="541" y="989" name="top"/>
  <outline>
    <contour>
      <point x="543" y="-27" type="line"/>
      <point x="548" y="-27" type="line"/>
      <point x="1007" y="989" type="line"/>
      <point x="929" y="989" type="line"/>
      <point x="529" y="81" type="line"/>
      <point x="578" y="124" type="line"/>
      <point x="186" y="990" type="line"/>
      <point x="75" y="989" type="line"/>
    </contour>
  </outline>
</glyph>
<glyph name="w" format="2">
  <advance width="1502"/>
  <unicode hex="0077"/>
  <note>
w
</note>
  <anchor x="751" y="0" name="bottom"/>
  <anchor x="751" y="989" name="top"/>
  <outline>
    <contour>
      <point x="983" y="-17" type="line"/>
      <point x="988" y="-17" type="line"/>
      <point x="1427" y="989" type="line"/>
      <point x="1353" y="989" type="line"/>
      <point x="953" y="61" type="line"/>
      <point x="1036" y="98" type="line"/>
      <point x="646" y="990" type="line"/>
      <point x="537" y="989" type="line"/>
    </contour>
    <contour>
      <point x="522" y="-17" type="line"/>
      <point x="527" y="-17" type="line"/>
      <point x="770" y="524" type="line"/>
      <point x="734" y="611" type="line"/>
      <point x="494" y="61" type="line"/>
      <point x="575" y="98" type="line"/>
      <point x="184" y="990" type="line"/>
      <point x="75" y="989" type="line"/>
    </contour>
    <contour>
      <point x="782" y="524" type="line"/>
      <point x="982" y="989" type="line"/>
      <point x="908" y="989" type="line"/>
      <point x="747" y="611" type="line"/>
    </contour>
  </outline>
</glyph>
<glyph name="x" format="2">
  <advance width="1025"/>
  <unicode hex="0078"/>
  <note>
x
</note>
  <anchor x="513" y="-20" name="bottom"/>
  <anchor x="513" y="989" name="top"/>
  <outline>
    <contour>
      <point x="820" y="0" type="line"/>
      <point x="950" y="0" type="line"/>
      <point x="213" y="990" type="line"/>
      <point x="83" y="990" type="line"/>
    </contour>
    <contour>
      <point x="76" y="0" type="line"/>
      <point x="167" y="0" type="line"/>
      <point x="531" y="487" type="line"/>
      <point x="465" y="527" type="line"/>
    </contour>
    <contour>
      <point x="545" y="492" type="line"/>
      <point x="911" y="990" type="line"/>
      <point x="817" y="990" type="line"/>
      <point x="492" y="547" type="line"/>
    </contour>
  </outline>
</glyph>
<glyph name="z" format="2">
  <advance width="936"/>
  <unicode hex="007A"/>
  <note>
z
</note>
  <anchor x="468" y="0" name="bottom"/>
  <anchor x="468" y="495" name="center"/>
  <anchor x="468" y="989" name="top"/>
  <outline>
    <contour>
      <point x="75" y="0" type="line"/>
      <point x="832" y="0" type="line"/>
      <point x="832" y="84" type="line"/>
      <point x="163" y="84" type="line"/>
      <point x="193" y="21" type="line"/>
      <point x="859" y="990" type="line"/>
      <point x="116" y="990" type="line"/>
      <point x="116" y="906" type="line"/>
      <point x="745" y="906" type="line"/>
      <point x="740" y="967" type="line"/>
    </contour>
  </outline>
</glyph>
<glyph name="braceleft" format="2">
  <advance width="695"/>
  <unicode hex="007B"/>
  <note>
braceleft
</note>
  <outline>
    <contour>
      <point x="592" y="-387" type="curve"/>
      <point x="592" y="-295" type="line"/>
      <point x="372" y="-296"/>
      <point x="312" y="-226"/>
      <point x="312" y="33" type="curve" smooth="yes"/>
      <point x="312" y="343" type="line" smooth="yes"/>
      <point x="312" y="397"/>
      <point x="287" y="439"/>
      <point x="229" y="487" type="curve"/>
      <point x="287" y="537"/>
      <point x="312" y="577"/>
      <point x="312" y="629" type="curve" smooth="yes"/>
      <point x="312" y="1040" type="line" smooth="yes"/>
      <point x="312" y="1280"/>
      <point x="388" y="1369"/>
      <point x="592" y="1368" type="curve"/>
      <point x="592" y="1460" type="line"/>
      <point x="365" y="1471"/>
      <point x="221" y="1333"/>
      <point x="221" y="1108" type="curve" smooth="yes"/>
      <point x="221" y="629" type="line" smooth="yes"/>
      <point x="221" y="580"/>
      <point x="196" y="556"/>
      <point x="98" y="486" type="curve"/>
      <point x="191" y="424"/>
      <point x="221" y="390"/>
      <point x="221" y="343" type="curve" smooth="yes"/>
      <point x="221" y="-35" type="line" smooth="yes"/>
      <point x="221" y="-261"/>
      <point x="364" y="-397"/>
    </contour>
  </outline>
</glyph>
<glyph name="ordfeminine" format="2">
  <advance width="730"/>
  <unicode hex="00AA"/>
  <note>
ordfeminine
</note>
  <outline>
    <contour>
      <point x="343" y="845" type="curve" smooth="yes"/>
      <point x="470" y="845"/>
      <point x="574" y="927"/>
      <point x="584" y="1044" type="curve"/>
      <point x="584" y="863" type="line"/>
      <point x="622" y="863" type="line"/>
      <point x="622" y="1435" type="line"/>
      <point x="581" y="1435" type="line"/>
      <point x="581" y="1250" type="line"/>
      <point x="571" y="1368"/>
      <point x="467" y="1451"/>
      <point x="338" y="1451" type="curve" smooth="yes"/>
      <point x="188" y="1451"/>
      <point x="89" y="1325"/>
      <point x="89" y="1146" type="curve" smooth="yes"/>
      <point x="89" y="970"/>
      <point x="190" y="845"/>
    </contour>
    <contour>
      <point x="349" y="886" type="curve" smooth="yes"/>
      <point x="224" y="886"/>
      <point x="142" y="990"/>
      <point x="142" y="1146" type="curve" smooth="yes"/>
      <point x="142" y="1304"/>
      <point x="222" y="1410"/>
      <point x="346" y="1410" type="curve" smooth="yes"/>
      <point x="474" y="1410"/>
      <point x="560" y="1308"/>
      <point x="560" y="1146" type="curve" smooth="yes"/>
      <point x="560" y="986"/>
      <point x="475" y="886"/>
    </contour>
    <contour>
      <point x="90" y="723" type="line"/>
      <point x="628" y="723" type="line"/>
      <point x="628" y="767" type="line"/>
      <point x="90" y="767" type="line"/>
    </contour>
  </outline>
</glyph>
<glyph name="logicalnot" format="2">
  <advance width="1081"/>
  <unicode hex="00AC"/>
  <note>
logicalnot
</note>
  <outline>
    <contour>
      <point x="1063" y="338" type="line"/>
      <point x="1142" y="338" type="line"/>
      <point x="1142" y="876" type="line"/>
      <point x="140" y="876" type="line"/>
      <point x="140" y="785" type="line"/>
      <point x="1063" y="785" type="line"/>
    </contour>
  </outline>
</glyph>
<glyph name="registered" format="2">
  <advance width="1762"/>
  <unicode hex="00AE"/>
  <note>
registered
</note>
  <outline>
    <contour>
      <point x="880" y="-10" type="curve" smooth="yes"/>
      <point x="1084" y="-10"/>
      <point x="1271" y="77"/>
      <point x="1407" y="202" type="curve" smooth="yes"/>
      <point x="1554" y="339"/>
      <point x="1619" y="519"/>
      <point x="1619" y="708" type="curve" smooth="yes"/>
      <point x="1619" y="919"/>
      <point x="1551" y="1081"/>
      <point x="1407" y="1214" type="curve" smooth="yes"/>
      <point x="1268" y="1343"/>
      <point x="1088" y="1426"/>
      <point x="880" y="1426" type="curve" smooth="yes"/>
      <point x="691" y="1426"/>
      <point x="502" y="1349"/>
      <point x="362" y="1216" type="curve" smooth="yes"/>
      <point x="216" y="1078"/>
      <point x="143" y="893"/>
      <point x="143" y="708" type="curve" smooth="yes"/>
      <point x="143" y="511"/>
      <point x="215" y="339"/>
      <point x="362" y="200" type="curve" smooth="yes"/>
      <point x="501" y="68"/>
      <point x="687" y="-10"/>
    </contour>
    <contour>
      <point x="880" y="77" type="curve" smooth="yes"/>
      <point x="707" y="77"/>
      <point x="546" y="146"/>
      <point x="425" y="261" type="curve" smooth="yes"/>
      <point x="294" y="385"/>
      <point x="232" y="546"/>
      <point x="232" y="708" type="curve" smooth="yes"/>
      <point x="232" y="882"/>
      <point x="296" y="1033"/>
      <point x="425" y="1155" type="curve" smooth="yes"/>
      <point x="548" y="1272"/>
      <point x="702" y="1339"/>
      <point x="880" y="1339" type="curve" smooth="yes"/>
      <point x="1052" y="1339"/>
      <point x="1224" y="1264"/>
      <point x="1344" y="1153" type="curve" smooth="yes"/>
      <point x="1473" y="1034"/>
      <point x="1530" y="874"/>
      <point x="1530" y="708" type="curve" smooth="yes"/>
      <point x="1530" y="522"/>
      <point x="1471" y="380"/>
      <point x="1344" y="263" type="curve" smooth="yes"/>
      <point x="1222" y="150"/>
      <point x="1057" y="77"/>
    </contour>
    <contour>
      <point x="611" y="310" type="line"/>
      <point x="682" y="310" type="line"/>
      <point x="682" y="681" type="line"/>
      <point x="872" y="681" type="line"/>
      <point x="1055" y="310" type="line"/>
      <point x="1129" y="310" type="line"/>
      <point x="941" y="686" type="line"/>
      <point x="1035" y="701"/>
      <point x="1140" y="783"/>
      <point x="1140" y="914" type="curve" smooth="yes"/>
      <point x="1140" y="1046"/>
      <point x="1047" y="1130"/>
      <point x="815" y="1130" type="curve" smooth="yes"/>
      <point x="611" y="1130" type="line"/>
    </contour>
    <contour>
      <point x="682" y="743" type="line"/>
      <point x="682" y="1068" type="line"/>
      <point x="859" y="1068" type="line" smooth="yes"/>
      <point x="994" y="1068"/>
      <point x="1068" y="1029"/>
      <point x="1068" y="913" type="curve" smooth="yes"/>
      <point x="1068" y="801"/>
      <point x="995" y="743"/>
      <point x="862" y="743" type="curve" smooth="yes"/>
    </contour>
  </outline>
</glyph>
<glyph name="ordmasculine" format="2">
  <advance width="725"/>
  <unicode hex="00BA"/>
  <note>
ordmasculine
</note>
  <outline>
    <contour>
      <point x="363" y="860" type="curve" smooth="yes"/>
      <point x="505" y="860"/>
      <point x="631" y="965"/>
      <point x="631" y="1147" type="curve" smooth="yes"/>
      <point x="631" y="1330"/>
      <point x="506" y="1438"/>
      <point x="363" y="1438" type="curve" smooth="yes"/>
      <point x="220" y="1438"/>
      <point x="98" y="1331"/>
      <point x="98" y="1147" type="curve" smooth="yes"/>
      <point x="98" y="964"/>
      <point x="221" y="860"/>
    </contour>
    <contour>
      <point x="364" y="904" type="curve" smooth="yes"/>
      <point x="249" y="904"/>
      <point x="151" y="989"/>
      <point x="151" y="1147" type="curve" smooth="yes"/>
      <point x="151" y="1305"/>
      <point x="250" y="1393"/>
      <point x="364" y="1393" type="curve" smooth="yes"/>
      <point x="478" y="1393"/>
      <point x="578" y="1305"/>
      <point x="578" y="1147" type="curve" smooth="yes"/>
      <point x="578" y="989"/>
      <point x="479" y="904"/>
    </contour>
    <contour>
      <point x="85" y="723" type="line"/>
      <point x="639" y="723" type="line"/>
      <point x="639" y="767" type="line"/>
      <point x="85" y="767" type="line"/>
    </contour>
  </outline>
</glyph>
<glyph name="germandbls" format="2">
  <advance width="1170"/>
  <unicode hex="00DF"/>
  <note>
germandbls
</note>
  <anchor x="585" y="-20" name="bottom"/>
  <anchor x="585" y="989" name="top"/>
  <outline>
    <contour>
      <point x="727" y="-28" type="curve" smooth="yes"/>
      <point x="986" y="-28"/>
      <point x="1089" y="71"/>
      <point x="1089" y="277" type="curve" smooth="yes"/>
      <point x="1089" y="439"/>
      <point x="964" y="537"/>
      <point x="737" y="579" type="curve" smooth="yes"/>
      <point x="531" y="617"/>
      <point x="518" y="656"/>
      <point x="518" y="744" type="curve" smooth="yes"/>
      <point x="518" y="840"/>
      <point x="595" y="880"/>
      <point x="667" y="922" type="curve" smooth="yes"/>
      <point x="755" y="974"/>
      <point x="891" y="1024"/>
      <point x="891" y="1214" type="curve" smooth="yes"/>
      <point x="891" y="1404"/>
      <point x="769" y="1532"/>
      <point x="562" y="1532" type="curve" smooth="yes"/>
      <point x="357" y="1532"/>
      <point x="242" y="1395"/>
      <point x="242" y="1114" type="curve" smooth="yes"/>
      <point x="242" y="0" type="line"/>
      <point x="328" y="0" type="line"/>
      <point x="328" y="1114" type="line" smooth="yes"/>
      <point x="328" y="1350"/>
      <point x="420" y="1451"/>
      <point x="570" y="1451" type="curve" smooth="yes"/>
      <point x="752" y="1451"/>
      <point x="807" y="1314"/>
      <point x="807" y="1198" type="curve" smooth="yes"/>
      <point x="807" y="1078"/>
      <point x="726" y="1054"/>
      <point x="640" y="1001" type="curve" smooth="yes"/>
      <point x="552" y="947"/>
      <point x="439" y="880"/>
      <point x="439" y="752" type="curve" smooth="yes"/>
      <point x="439" y="584"/>
      <point x="495" y="533"/>
      <point x="727" y="491" type="curve" smooth="yes"/>
      <point x="921" y="456"/>
      <point x="1003" y="378"/>
      <point x="1003" y="258" type="curve" smooth="yes"/>
      <point x="1003" y="126"/>
      <point x="905" y="58"/>
      <point x="725" y="58" type="curve" smooth="yes"/>
      <point x="582" y="58"/>
      <point x="509" y="101"/>
      <point x="447" y="137" type="curve"/>
      <point x="447" y="29" type="line"/>
      <point x="527" y="-10"/>
      <point x="617" y="-28"/>
    </contour>
    <contour>
      <point x="77" y="911" type="line"/>
      <point x="269" y="911" type="line"/>
      <point x="269" y="990" type="line"/>
      <point x="77" y="990" type="line"/>
    </contour>
  </outline>
</glyph>
<glyph name="ae" format="2">
  <advance width="1836"/>
  <unicode hex="00E6"/>
  <note>
ae
</note>
  <anchor x="918" y="-20" name="bottom"/>
  <anchor x="968" y="989" name="top"/>
  <outline>
    <contour>
      <point x="516" y="-28" type="curve" smooth="yes"/>
      <point x="719" y="-28"/>
      <point x="866" y="94"/>
      <point x="923" y="311" type="curve"/>
      <point x="894" y="342" type="line"/>
      <point x="883" y="0" type="line"/>
      <point x="975" y="0" type="line"/>
      <point x="975" y="990" type="line"/>
      <point x="883" y="990" type="line"/>
      <point x="883" y="631" type="line"/>
      <point x="923" y="655" type="line"/>
      <point x="866" y="887"/>
      <point x="714" y="1016"/>
      <point x="515" y="1016" type="curve" smooth="yes"/>
      <point x="258" y="1016"/>
      <point x="85" y="798"/>
      <point x="85" y="485" type="curve" smooth="yes"/>
      <point x="85" y="173"/>
      <point x="255" y="-28"/>
    </contour>
    <contour>
      <point x="520" y="53" type="curve" smooth="yes"/>
      <point x="297" y="53"/>
      <point x="171" y="216"/>
      <point x="171" y="495" type="curve" smooth="yes"/>
      <point x="171" y="776"/>
      <point x="305" y="935"/>
      <point x="519" y="935" type="curve" smooth="yes"/>
      <point x="742" y="935"/>
      <point x="883" y="758"/>
      <point x="883" y="485" type="curve" smooth="yes"/>
      <point x="883" y="214"/>
      <point x="741" y="53"/>
    </contour>
    <contour>
      <point x="1337" y="-28" type="curve" smooth="yes"/>
      <point x="1538" y="-28"/>
      <point x="1685" y="99"/>
      <point x="1741" y="321" type="curve"/>
      <point x="1661" y="321" type="line"/>
      <point x="1618" y="153"/>
      <point x="1498" y="53"/>
      <point x="1338" y="53" type="curve" smooth="yes"/>
      <point x="1132" y="53"/>
      <point x="1004" y="219"/>
      <point x="1004" y="491" type="curve" smooth="yes"/>
      <point x="1004" y="764"/>
      <point x="1134" y="936"/>
      <point x="1337" y="936" type="curve" smooth="yes"/>
      <point x="1531" y="936"/>
      <point x="1661" y="780"/>
      <point x="1681" y="522" type="curve"/>
      <point x="1756" y="522" type="line"/>
      <point x="1740" y="823"/>
      <point x="1572" y="1016"/>
      <point x="1336" y="1016" type="curve" smooth="yes"/>
      <point x="1084" y="1016"/>
      <point x="915" y="791"/>
      <point x="915" y="482" type="curve" smooth="yes"/>
      <point x="915" y="173"/>
      <point x="1085" y="-28"/>
    </contour>
    <contour>
      <point x="954" y="522" type="line"/>
      <point x="1729" y="522" type="line"/>
      <point x="1726" y="597" type="line"/>
      <point x="957" y="597" type="line"/>
    </contour>
  </outline>
</glyph>
<glyph name="kgreenlandic" format="2">
  <advance width="959"/>
  <unicode hex="0138"/>
  <anchor x="480" y="-20" name="bottom"/>
  <anchor x="480" y="989" name="top"/>
  <outline>
    <contour>
      <point x="110" y="0" type="line"/>
      <point x="196" y="0" type="line"/>
      <point x="196" y="990" type="line"/>
      <point x="110" y="990" type="line"/>
    </contour>
    <contour>
      <point x="754" y="0" type="line"/>
      <point x="885" y="0" type="line"/>
      <point x="308" y="622" type="line"/>
      <point x="245" y="549" type="line"/>
    </contour>
    <contour>
      <point x="188" y="400" type="line"/>
      <point x="792" y="989" type="line"/>
      <point x="676" y="989" type="line"/>
      <point x="126" y="453" type="line"/>
    </contour>
  </outline>
</glyph>
<glyph name="OE" format="2">
  <advance width="2217"/>
  <unicode hex="0152"/>
  <note>
OE
</note>
  <anchor x="1109" y="-20" name="bottom"/>
  <anchor x="1109" y="1430" name="top"/>
  <outline>
    <contour>
      <point x="745" y="-10" type="curve" smooth="yes"/>
      <point x="1142" y="-10"/>
      <point x="1376" y="286"/>
      <point x="1376" y="717" type="curve" smooth="yes"/>
      <point x="1376" y="1148"/>
      <point x="1142" y="1444"/>
      <point x="745" y="1444" type="curve" smooth="yes"/>
      <point x="348" y="1444"/>
      <point x="114" y="1148"/>
      <point x="114" y="717" type="curve" smooth="yes"/>
      <point x="114" y="286"/>
      <point x="348" y="-10"/>
    </contour>
    <contour>
      <point x="745" y="69" type="curve"/>
      <point x="405" y="77"/>
      <point x="212" y="338"/>
      <point x="212" y="717" type="curve" smooth="yes"/>
      <point x="212" y="1096"/>
      <point x="405" y="1357"/>
      <point x="745" y="1365" type="curve"/>
      <point x="1085" y="1357"/>
      <point x="1278" y="1096"/>
      <point x="1278" y="717" type="curve" smooth="yes"/>
      <point x="1278" y="338"/>
      <point x="1085" y="77"/>
    </contour>
    <contour>
      <point x="1292" y="0" type="line"/>
      <point x="2104" y="0" type="line"/>
      <point x="2104" y="77" type="line"/>
      <point x="1309" y="77" type="line"/>
      <point x="1375" y="16" type="line"/>
      <point x="1375" y="757" type="line"/>
      <point x="1338" y="689" type="line"/>
      <point x="2104" y="689" type="line"/>
      <point x="2104" y="766" type="line"/>
      <point x="1309" y="766" type="line"/>
      <point x="1375" y="705" type="line"/>
      <point x="1375" y="1419" type="line"/>
      <point x="1328" y="1353" type="line"/>
      <point x="2104" y="1353" type="line"/>
      <point x="2104" y="1430" type="line"/>
      <point x="1292" y="1430" type="line"/>
    </contour>
  </outline>
</glyph>
<glyph name="Schwa" format="2">
  <advance width="1555"/>
  <unicode hex="018F"/>
  <anchor x="778" y="-20" name="bottom"/>
  <anchor x="778" y="1430" name="top"/>
  <outline>
    <contour>
      <point x="775" y="-10" type="curve" smooth="yes"/>
      <point x="1173" y="-10"/>
      <point x="1441" y="283"/>
      <point x="1441" y="714" type="curve" smooth="yes"/>
      <point x="1441" y="1146"/>
      <point x="1171" y="1443"/>
      <point x="775" y="1443" type="curve" smooth="yes"/>
      <point x="527" y="1443"/>
      <point x="327" y="1325"/>
      <point x="214" y="1131" type="curve"/>
      <point x="325" y="1131" type="line"/>
      <point x="425" y="1274"/>
      <point x="582" y="1361"/>
      <point x="775" y="1364" type="curve"/>
      <point x="1113" y="1358"/>
      <point x="1343" y="1096"/>
      <point x="1343" y="717" type="curve" smooth="yes"/>
      <point x="1343" y="338"/>
      <point x="1116" y="79"/>
      <point x="775" y="69" type="curve"/>
      <point x="412" y="80"/>
      <point x="207" y="353"/>
      <point x="207" y="742" type="curve"/>
      <point x="109" y="742" type="line"/>
      <point x="109" y="300"/>
      <point x="353" y="-10"/>
    </contour>
    <contour>
      <point x="174" y="665" type="line"/>
      <point x="1405" y="665" type="line"/>
      <point x="1405" y="742" type="line"/>
      <point x="174" y="742" type="line"/>
    </contour>
  </outline>
</glyph>
<glyph name="jdotless" format="2">
  <advance width="316"/>
  <unicode hex="0237"/>
  <anchor x="158" y="-546" name="bottom"/>
  <anchor x="158" y="989" name="top"/>
  <outline>
    <contour>
      <point x="21" y="-558" type="curve" smooth="yes"/>
      <point x="212" y="-558"/>
      <point x="201" y="-337"/>
      <point x="201" y="-140" type="curve" smooth="yes"/>
      <point x="201" y="990" type="line"/>
      <point x="115" y="990" type="line"/>
      <point x="115" y="-140" type="line" smooth="yes"/>
      <point x="115" y="-400"/>
      <point x="103" y="-476"/>
      <point x="13" y="-476" type="curve" smooth="yes"/>
      <point x="-42" y="-476"/>
      <point x="-76" y="-447"/>
      <point x="-76" y="-386" type="curve" smooth="yes"/>
      <point x="-76" y="-375"/>
      <point x="-75" y="-367"/>
      <point x="-72" y="-348" type="curve"/>
      <point x="-151" y="-348" type="line"/>
      <point x="-154" y="-359"/>
      <point x="-157" y="-372"/>
      <point x="-157" y="-392" type="curve" smooth="yes"/>
      <point x="-157" y="-503"/>
      <point x="-75" y="-558"/>
    </contour>
  </outline>
</glyph>
<glyph name="primemod" format="2">
  <advance width="181"/>
  <unicode hex="02B9"/>
  <outline>
    <contour>
      <point x="181" y="1335" type="curve"/>
      <point x="75" y="1335" type="line"/>
      <point x="52" y="1265"/>
      <point x="12" y="1110"/>
      <point x="0" y="1012" type="curve"/>
      <point x="73" y="1012" type="line"/>
      <point x="118" y="1110"/>
      <point x="155" y="1222"/>
    </contour>
  </outline>
</glyph>
<glyph name="gravecomb" format="2">
  <unicode hex="0300"/>
  <note>
grave
</note>
  <anchor x="133" y="949" name="_top"/>
  <anchor x="133" y="1311" name="top"/>
  <outline>
    <contour>
      <point x="241" y="1040" type="curve"/>
      <point x="266" y="1040" type="line"/>
      <point x="236" y="1147"/>
      <point x="168" y="1242"/>
      <point x="137" y="1291" type="curve"/>
      <point x="0" y="1291" type="line"/>
      <point x="46" y="1230"/>
      <point x="128" y="1137"/>
    </contour>
  </outline>
</glyph>
<glyph name="circumflexcomb" format="2">
  <unicode hex="0302"/>
  <note>
circumflex
</note>
  <anchor x="245" y="949" name="_top"/>
  <anchor x="245" y="1316" name="top"/>
  <outline>
    <contour>
      <point x="7" y="1064" type="line"/>
      <point x="97" y="1064" type="line"/>
      <point x="240" y="1251" type="line"/>
      <point x="392" y="1064" type="line"/>
      <point x="483" y="1064" type="line"/>
      <point x="288" y="1356" type="line"/>
      <point x="201" y="1356" type="line"/>
    </contour>
  </outline>
</glyph>
<glyph name="tildecomb" format="2">
  <unicode hex="0303"/>
  <note>
tilde
</note>
  <anchor x="370" y="949" name="_top"/>
  <anchor x="370" y="1332" name="top"/>
  <outline>
    <contour>
      <point x="487" y="1083" type="curve" smooth="yes"/>
      <point x="572" y="1083"/>
      <point x="621" y="1130"/>
      <point x="671" y="1256" type="curve"/>
      <point x="644" y="1290" type="line"/>
      <point x="621" y="1240"/>
      <point x="552" y="1182"/>
      <point x="484" y="1182" type="curve" smooth="yes"/>
      <point x="384" y="1182"/>
      <point x="375" y="1312"/>
      <point x="248" y="1312" type="curve" smooth="yes"/>
      <point x="160" y="1312"/>
      <point x="109" y="1260"/>
      <point x="69" y="1135" type="curve"/>
      <point x="95" y="1104" type="line"/>
      <point x="119" y="1153"/>
      <point x="180" y="1211"/>
      <point x="249" y="1211" type="curve" smooth="yes"/>
      <point x="350" y="1211"/>
      <point x="360" y="1083"/>
    </contour>
  </outline>
</glyph>
<glyph name="macroncomb" format="2">
  <unicode hex="0304"/>
  <note>
macron
</note>
  <anchor x="315" y="949" name="_top"/>
  <anchor x="315" y="1212" name="top"/>
  <outline>
    <contour>
      <point x="61" y="1094" type="line"/>
      <point x="568" y="1094" type="line"/>
      <point x="568" y="1192" type="line"/>
      <point x="61" y="1192" type="line"/>
    </contour>
  </outline>
</glyph>
<glyph name="brevecomb" format="2">
  <unicode hex="0306"/>
  <note>
breve
</note>
  <anchor x="286" y="949" name="_top"/>
  <anchor x="286" y="1324" name="top"/>
  <outline>
    <contour>
      <point x="286" y="1048" type="curve" smooth="yes"/>
      <point x="403" y="1048"/>
      <point x="476" y="1123"/>
      <point x="514" y="1304" type="curve"/>
      <point x="444" y="1304" type="line"/>
      <point x="412" y="1191"/>
      <point x="389" y="1142"/>
      <point x="286" y="1142" type="curve" smooth="yes"/>
      <point x="183" y="1142"/>
      <point x="160" y="1191"/>
      <point x="128" y="1304" type="curve"/>
      <point x="58" y="1304" type="line"/>
      <point x="97" y="1123"/>
      <point x="169" y="1048"/>
    </contour>
  </outline>
</glyph>
<glyph name="dieresiscomb" format="2">
  <unicode hex="0308"/>
  <note>
dieresis
</note>
  <anchor x="253" y="949" name="_top"/>
  <anchor x="253" y="1278" name="top"/>
  <outline>
    <contour>
      <point x="399" y="1095" type="curve" smooth="yes"/>
      <point x="442" y="1095"/>
      <point x="477" y="1131"/>
      <point x="477" y="1176" type="curve" smooth="yes"/>
      <point x="477" y="1222"/>
      <point x="442" y="1258"/>
      <point x="399" y="1258" type="curve" smooth="yes"/>
      <point x="356" y="1258"/>
      <point x="321" y="1222"/>
      <point x="321" y="1176" type="curve" smooth="yes"/>
      <point x="321" y="1131"/>
      <point x="356" y="1095"/>
    </contour>
    <contour>
      <point x="107" y="1095" type="curve" smooth="yes"/>
      <point x="150" y="1095"/>
      <point x="185" y="1131"/>
      <point x="185" y="1176" type="curve" smooth="yes"/>
      <point x="185" y="1222"/>
      <point x="150" y="1258"/>
      <point x="107" y="1258" type="curve" smooth="yes"/>
      <point x="64" y="1258"/>
      <point x="29" y="1222"/>
      <point x="29" y="1176" type="curve" smooth="yes"/>
      <point x="29" y="1131"/>
      <point x="64" y="1095"/>
    </contour>
  </outline>
</glyph>
<glyph name="ringcomb" format="2">
  <unicode hex="030A"/>
  <note>
ring
</note>
  <anchor x="245" y="949" name="_top"/>
  <anchor x="245" y="1402" name="top"/>
  <outline>
    <contour>
      <point x="245" y="1074" type="curve" smooth="yes"/>
      <point x="331" y="1074"/>
      <point x="399" y="1133"/>
      <point x="399" y="1228" type="curve" smooth="yes"/>
      <point x="399" y="1323"/>
      <point x="331" y="1382"/>
      <point x="245" y="1382" type="curve" smooth="yes"/>
      <point x="159" y="1382"/>
      <point x="91" y="1323"/>
      <point x="91" y="1228" type="curve" smooth="yes"/>
      <point x="91" y="1133"/>
      <point x="159" y="1074"/>
    </contour>
    <contour>
      <point x="245" y="1137" type="curve" smooth="yes"/>
      <point x="194" y="1137"/>
      <point x="154" y="1172"/>
      <point x="154" y="1228" type="curve" smooth="yes"/>
      <point x="154" y="1284"/>
      <point x="194" y="1319"/>
      <point x="245" y="1319" type="curve" smooth="yes"/>
      <point x="296" y="1319"/>
      <point x="336" y="1284"/>
      <point x="336" y="1228" type="curve" smooth="yes"/>
      <point x="336" y="1172"/>
      <point x="296" y="1137"/>
    </contour>
  </outline>
</glyph>
<glyph name="cedillacomb" format="2">
  <unicode hex="0327"/>
  <anchor x="189" y="0" name="_bottom"/>
  <anchor x="188.5" y="-368" name="bottom"/>
  <outline>
    <contour>
      <point x="184" y="-368" type="curve" smooth="yes"/>
      <point x="271" y="-368"/>
      <point x="343" y="-308"/>
      <point x="343" y="-228" type="curve" smooth="yes"/>
      <point x="343" y="-154"/>
      <point x="282" y="-104"/>
      <point x="208" y="-104" type="curve" smooth="yes"/>
      <point x="180" y="-104"/>
      <point x="160" y="-111"/>
      <point x="103" y="-141" type="curve"/>
      <point x="76" y="-187" type="line"/>
      <point x="131" y="-170"/>
      <point x="164" y="-163"/>
      <point x="194" y="-163" type="curve" smooth="yes"/>
      <point x="253" y="-163"/>
      <point x="278" y="-192"/>
      <point x="278" y="-231" type="curve" smooth="yes"/>
      <point x="278" y="-279"/>
      <point x="240" y="-304"/>
      <point x="179" y="-304" type="curve" smooth="yes"/>
      <point x="141" y="-304"/>
      <point x="90" y="-294"/>
      <point x="44" y="-278" type="curve"/>
      <point x="44" y="-330" type="line"/>
      <point x="95" y="-355"/>
      <point x="143" y="-368"/>
    </contour>
    <contour>
      <point x="76" y="-187" type="line"/>
      <point x="181" y="-119" type="line"/>
      <point x="256" y="0" type="line"/>
      <point x="185" y="0" type="line"/>
    </contour>
  </outline>
</glyph>
<glyph name="strokeshortcomb" format="2">
  <unicode hex="0335"/>
  <anchor x="274" y="750" name="_center"/>
  <outline>
    <contour>
      <point x="0" y="710" type="line"/>
      <point x="548" y="710" type="line"/>
      <point x="548" y="789" type="line"/>
      <point x="0" y="789" type="line"/>
    </contour>
  </outline>
</glyph>
<glyph name="strokelongcomb" format="2">
  <unicode hex="0336"/>
  <anchor x="310.5" y="749.5" name="_center"/>
  <outline>
    <contour>
      <point x="54" y="710" type="line"/>
      <point x="567" y="710" type="line"/>
      <point x="567" y="789" type="line"/>
      <point x="54" y="789" type="line"/>
    </contour>
  </outline>
</glyph>
<glyph name="slashlongcomb" format="2">
  <unicode hex="0338"/>
  <anchor x="405" y="477.5" name="_center"/>
  <outline>
    <contour>
      <point x="-12" y="-95" type="line"/>
      <point x="94" y="-95" type="line"/>
      <point x="822" y="1050" type="line"/>
      <point x="716" y="1050" type="line"/>
    </contour>
  </outline>
</glyph>
<glyph name="Be-cy" format="2">
  <advance width="1108"/>
  <unicode hex="0411"/>
  <outline>
    <contour>
      <point x="176" y="0" type="line"/>
      <point x="520" y="0" type="line" smooth="yes"/>
      <point x="834" y="0"/>
      <point x="1018" y="157"/>
      <point x="1018" y="410" type="curve" smooth="yes"/>
      <point x="1018" y="663"/>
      <point x="834" y="820"/>
      <point x="520" y="820" type="curve" smooth="yes"/>
      <point x="219" y="820" type="line"/>
      <point x="259" y="780" type="line"/>
      <point x="259" y="1430" type="line"/>
      <point x="176" y="1430" type="line"/>
    </contour>
    <contour>
      <point x="259" y="37" type="line"/>
      <point x="259" y="783" type="line"/>
      <point x="219" y="743" type="line"/>
      <point x="482" y="743" type="line" smooth="yes"/>
      <point x="763" y="743"/>
      <point x="926" y="621"/>
      <point x="926" y="410" type="curve" smooth="yes"/>
      <point x="926" y="199"/>
      <point x="763" y="77"/>
      <point x="482" y="77" type="curve" smooth="yes"/>
      <point x="219" y="77" type="line"/>
    </contour>
    <contour>
      <point x="906" y="1353" type="line"/>
      <point x="906" y="1430" type="line"/>
      <point x="176" y="1430" type="line"/>
      <point x="176" y="1353" type="line"/>
    </contour>
  </outline>
</glyph>
<glyph name="Zhe-cy" format="2">
  <advance width="1700"/>
  <unicode hex="0416"/>
  <guideline x="1346" y="370" angle="127.3996"/>
  <anchor x="1680" y="0" name="bottomright"/>
  <anchor x="850" y="1430" name="top"/>
  <outline>
    <contour>
      <point x="1502" y="0" type="line"/>
      <point x="1628" y="0" type="line"/>
      <point x="1063" y="749" type="line"/>
      <point x="963" y="721" type="line"/>
    </contour>
    <contour>
      <point x="807" y="0" type="line"/>
      <point x="893" y="0" type="line"/>
      <point x="893" y="1430" type="line"/>
      <point x="807" y="1430" type="line"/>
    </contour>
    <contour>
      <point x="864" y="692" type="line"/>
      <point x="1072" y="692" type="line"/>
      <point x="1072" y="758" type="line"/>
      <point x="864" y="758" type="line"/>
    </contour>
    <contour>
      <point x="958" y="731" type="line"/>
      <point x="1071" y="737" type="line"/>
      <point x="1571" y="1430" type="line"/>
      <point x="1464" y="1430" type="line"/>
    </contour>
    <contour>
      <point x="198" y="0" type="line"/>
      <point x="737" y="721" type="line"/>
      <point x="637" y="749" type="line"/>
      <point x="72" y="0" type="line"/>
    </contour>
    <contour>
      <point x="836" y="692" type="line"/>
      <point x="836" y="758" type="line"/>
      <point x="628" y="758" type="line"/>
      <point x="628" y="692" type="line"/>
    </contour>
    <contour>
      <point x="742" y="731" type="line"/>
      <point x="236" y="1430" type="line"/>
      <point x="129" y="1430" type="line"/>
      <point x="629" y="737" type="line"/>
    </contour>
  </outline>
</glyph>
<glyph name="Ze-cy" format="2">
  <advance width="1150"/>
  <unicode hex="0417"/>
  <anchor x="575" y="0" name="bottom"/>
  <anchor x="575" y="1430" name="top"/>
  <outline>
    <contour>
      <point x="567" y="-33" type="curve" smooth="yes"/>
      <point x="861" y="-33"/>
      <point x="1039" y="106"/>
      <point x="1039" y="394" type="curve" smooth="yes"/>
      <point x="1039" y="649"/>
      <point x="927" y="751"/>
      <point x="666" y="771" type="curve"/>
      <point x="455" y="706" type="line"/>
      <point x="829" y="706"/>
      <point x="990" y="803"/>
      <point x="990" y="1087" type="curve" smooth="yes"/>
      <point x="990" y="1328"/>
      <point x="857" y="1455"/>
      <point x="604" y="1455" type="curve" smooth="yes"/>
      <point x="412" y="1455"/>
      <point x="298" y="1382"/>
      <point x="228" y="1258" type="curve"/>
      <point x="290" y="1195" type="line"/>
      <point x="336" y="1314"/>
      <point x="428" y="1376"/>
      <point x="599" y="1376" type="curve" smooth="yes"/>
      <point x="802" y="1376"/>
      <point x="902" y="1288"/>
      <point x="902" y="1083" type="curve" smooth="yes"/>
      <point x="902" y="873"/>
      <point x="798" y="783"/>
      <point x="554" y="783" type="curve" smooth="yes"/>
      <point x="450" y="783" type="line"/>
      <point x="450" y="706" type="line"/>
      <point x="558" y="706" type="line" smooth="yes"/>
      <point x="824" y="706"/>
      <point x="938" y="626"/>
      <point x="938" y="392" type="curve" smooth="yes"/>
      <point x="938" y="164"/>
      <point x="801" y="46"/>
      <point x="574" y="46" type="curve" smooth="yes"/>
      <point x="343" y="46"/>
      <point x="253" y="168"/>
      <point x="198" y="317" type="curve"/>
      <point x="105" y="286" type="line"/>
      <point x="166" y="101"/>
      <point x="279" y="-33"/>
    </contour>
  </outline>
</glyph>
<glyph name="Ka-cy" format="2">
  <advance width="1135"/>
  <unicode hex="041A"/>
  <guideline x="1033" y="8" angle="270"/>
  <anchor x="1115" y="0" name="bottomright"/>
  <anchor x="568" y="1430" name="top"/>
  <outline>
    <contour>
      <point x="143" y="0" type="line"/>
      <point x="226" y="0" type="line"/>
      <point x="226" y="1430" type="line"/>
      <point x="143" y="1430" type="line"/>
    </contour>
    <contour>
      <point x="257" y="654" type="line"/>
      <point x="1011" y="1430" type="line"/>
      <point x="914" y="1430" type="line"/>
      <point x="207" y="703" type="line"/>
    </contour>
    <contour>
      <point x="891" y="0" type="line"/>
      <point x="1031" y="0" type="line"/>
      <point x="289" y="739" type="line"/>
      <point x="212" y="676" type="line"/>
    </contour>
  </outline>
</glyph>
<glyph name="El-cy" format="2">
  <advance width="1371"/>
  <unicode hex="041B"/>
  <outline>
    <contour>
      <point x="515" y="1430" type="line"/>
      <point x="519" y="1149"/>
      <point x="524" y="671"/>
      <point x="444" y="376" type="curve" smooth="yes"/>
      <point x="387" y="166"/>
      <point x="291" y="78"/>
      <point x="165" y="78" type="curve" smooth="yes"/>
      <point x="106" y="78" type="line"/>
      <point x="106" y="0" type="line"/>
      <point x="148" y="0" type="line" smooth="yes"/>
      <point x="321" y="0"/>
      <point x="442" y="116"/>
      <point x="508" y="350" type="curve" smooth="yes"/>
      <point x="595" y="656"/>
      <point x="593" y="1149"/>
      <point x="592" y="1370" type="curve"/>
      <point x="552" y="1353" type="line"/>
      <point x="1185" y="1353" type="line"/>
      <point x="1145" y="1393" type="line"/>
      <point x="1145" y="0" type="line"/>
      <point x="1228" y="0" type="line"/>
      <point x="1228" y="1430" type="line"/>
    </contour>
  </outline>
</glyph>
<glyph name="Pe-cy" format="2">
  <advance width="1373"/>
  <unicode hex="041F"/>
  <anchor x="1353" y="0" name="bottomright"/>
  <outline>
    <contour>
      <point x="143" y="0" type="line"/>
      <point x="232" y="0" type="line"/>
      <point x="232" y="1353" type="line"/>
      <point x="1142" y="1353" type="line"/>
      <point x="1142" y="0" type="line"/>
      <point x="1230" y="0" type="line"/>
      <point x="1230" y="1430" type="line"/>
      <point x="143" y="1430" type="line"/>
    </contour>
  </outline>
</glyph>
<glyph name="U-cy" format="2">
  <advance width="1148"/>
  <unicode hex="0423"/>
  <guideline x="669" y="1005" angle="246.4768"/>
  <guideline x="733" y="947" angle="66.5014"/>
  <anchor x="574" y="1430" name="top"/>
  <outline>
    <contour>
      <point x="229" y="0" type="line"/>
      <point x="337" y="0" type="line"/>
      <point x="408" y="0"/>
      <point x="455" y="41"/>
      <point x="484" y="109" type="curve" smooth="yes"/>
      <point x="1043" y="1430" type="line"/>
      <point x="954" y="1430" type="line"/>
      <point x="415" y="168" type="line" smooth="yes"/>
      <point x="377" y="79"/>
      <point x="361" y="59"/>
      <point x="269" y="59" type="curve" smooth="yes"/>
      <point x="229" y="59" type="line"/>
    </contour>
    <contour>
      <point x="542" y="419" type="line"/>
      <point x="602" y="479" type="line"/>
      <point x="190" y="1430" type="line"/>
      <point x="105" y="1430" type="line"/>
    </contour>
  </outline>
</glyph>
<glyph name="Ef-cy" format="2">
  <advance width="1298"/>
  <unicode hex="0424"/>
  <outline>
    <contour>
      <point x="648" y="193" type="curve"/>
      <point x="648" y="272" type="line"/>
      <point x="390" y="272"/>
      <point x="208" y="446"/>
      <point x="208" y="712" type="curve" smooth="yes"/>
      <point x="208" y="983"/>
      <point x="396" y="1158"/>
      <point x="648" y="1158" type="curve"/>
      <point x="648" y="1237" type="line"/>
      <point x="335" y="1237"/>
      <point x="111" y="1013"/>
      <point x="111" y="703" type="curve" smooth="yes"/>
      <point x="111" y="399"/>
      <point x="327" y="193"/>
    </contour>
    <contour>
      <point x="608" y="0" type="line"/>
      <point x="691" y="0" type="line"/>
      <point x="691" y="1430" type="line"/>
      <point x="608" y="1430" type="line"/>
    </contour>
    <contour>
      <point x="648" y="193" type="line"/>
      <point x="969" y="193"/>
      <point x="1187" y="399"/>
      <point x="1187" y="703" type="curve" smooth="yes"/>
      <point x="1187" y="1011"/>
      <point x="962" y="1237"/>
      <point x="648" y="1237" type="curve"/>
      <point x="648" y="1158" type="line"/>
      <point x="899" y="1158"/>
      <point x="1088" y="976"/>
      <point x="1088" y="703" type="curve" smooth="yes"/>
      <point x="1088" y="438"/>
      <point x="909" y="272"/>
      <point x="648" y="272" type="curve"/>
    </contour>
  </outline>
</glyph>
<glyph name="Sha-cy" format="2">
  <advance width="1662"/>
  <unicode hex="0428"/>
  <outline>
    <contour>
      <point x="143" y="0" type="line"/>
      <point x="1519" y="0" type="line"/>
      <point x="1519" y="1430" type="line"/>
      <point x="1431" y="1430" type="line"/>
      <point x="1431" y="77" type="line"/>
      <point x="232" y="77" type="line"/>
      <point x="232" y="1430" type="line"/>
      <point x="143" y="1430" type="line"/>
    </contour>
    <contour>
      <point x="790" y="0" type="line"/>
      <point x="873" y="0" type="line"/>
      <point x="873" y="1430" type="line"/>
      <point x="790" y="1430" type="line"/>
    </contour>
  </outline>
</glyph>
<glyph name="ge-cy" format="2">
  <advance width="798"/>
  <unicode hex="0433"/>
  <anchor x="778" y="0" name="bottomright"/>
  <anchor x="146" y="495" name="center"/>
  <anchor x="399" y="990" name="top"/>
  <outline>
    <contour>
      <point x="100" y="990" type="line"/>
      <point x="100" y="-1" type="line"/>
      <point x="192" y="-1" type="line"/>
      <point x="192" y="976" type="line"/>
      <point x="126" y="912" type="line"/>
      <point x="701" y="912" type="line"/>
      <point x="701" y="990" type="line"/>
    </contour>
  </outline>
</glyph>
<glyph name="zhe-cy" format="2">
  <advance width="1326"/>
  <unicode hex="0436"/>
  <anchor x="1306" y="0" name="bottomright"/>
  <anchor x="663" y="990" name="top"/>
  <outline>
    <contour>
      <point x="1126" y="0" type="line"/>
      <point x="1252" y="0" type="line"/>
      <point x="850" y="528" type="line"/>
      <point x="750" y="497" type="line"/>
    </contour>
    <contour>
      <point x="621" y="0" type="line"/>
      <point x="705" y="0" type="line"/>
      <point x="705" y="990" type="line"/>
      <point x="621" y="990" type="line"/>
    </contour>
    <contour>
      <point x="666" y="464" type="line"/>
      <point x="859" y="464" type="line"/>
      <point x="859" y="539" type="line"/>
      <point x="666" y="539" type="line"/>
    </contour>
    <contour>
      <point x="748" y="510" type="line"/>
      <point x="855" y="507" type="line"/>
      <point x="1211" y="990" type="line"/>
      <point x="1104" y="990" type="line"/>
    </contour>
    <contour>
      <point x="200" y="0" type="line"/>
      <point x="576" y="497" type="line"/>
      <point x="476" y="528" type="line"/>
      <point x="74" y="0" type="line"/>
    </contour>
    <contour>
      <point x="660" y="464" type="line"/>
      <point x="660" y="539" type="line"/>
      <point x="464" y="539" type="line"/>
      <point x="464" y="464" type="line"/>
    </contour>
    <contour>
      <point x="577" y="510" type="line"/>
      <point x="222" y="990" type="line"/>
      <point x="115" y="990" type="line"/>
      <point x="470" y="507" type="line"/>
    </contour>
  </outline>
</glyph>
<glyph name="em-cy" format="2">
  <advance width="1192"/>
  <unicode hex="043C"/>
  <outline>
    <contour>
      <point x="109" y="0" type="line"/>
      <point x="205" y="0" type="line"/>
      <point x="205" y="942" type="line"/>
      <point x="154" y="931" type="line"/>
      <point x="594" y="69" type="line"/>
      <point x="1043" y="944" type="line"/>
      <point x="998" y="941" type="line"/>
      <point x="998" y="0" type="line"/>
      <point x="1083" y="0" type="line"/>
      <point x="1083" y="990" type="line"/>
      <point x="952" y="990" type="line"/>
      <point x="537" y="184" type="line"/>
      <point x="634" y="185" type="line"/>
      <point x="223" y="990" type="line"/>
      <point x="109" y="990" type="line"/>
    </contour>
  </outline>
</glyph>
<glyph name="pe-cy" format="2">
  <advance width="988"/>
  <unicode hex="043F"/>
  <anchor x="951" y="0" name="bottomright"/>
  <outline>
    <contour>
      <point x="109" y="0" type="line"/>
      <point x="201" y="0" type="line"/>
      <point x="201" y="909" type="line"/>
      <point x="788" y="909" type="line"/>
      <point x="788" y="0" type="line"/>
      <point x="879" y="0" type="line"/>
      <point x="879" y="990" type="line"/>
      <point x="109" y="990" type="line"/>
    </contour>
  </outline>
</glyph>
<glyph name="ef-cy" format="2">
  <advance width="1406"/>
  <unicode hex="0444"/>
  <outline>
    <contour>
      <point x="931" y="-13" type="curve" smooth="yes"/>
      <point x="1187" y="-13"/>
      <point x="1320" y="155"/>
      <point x="1320" y="488" type="curve" smooth="yes"/>
      <point x="1320" y="821"/>
      <point x="1187" y="995"/>
      <point x="931" y="995" type="curve" smooth="yes"/>
      <point x="883" y="995"/>
      <point x="814" y="989"/>
      <point x="715" y="923" type="curve"/>
      <point x="728" y="861" type="line"/>
      <point x="790" y="913"/>
      <point x="873" y="927"/>
      <point x="926" y="927" type="curve" smooth="yes"/>
      <point x="1108" y="927"/>
      <point x="1228" y="759"/>
      <point x="1228" y="491" type="curve" smooth="yes"/>
      <point x="1228" y="221"/>
      <point x="1108" y="55"/>
      <point x="926" y="55" type="curve" smooth="yes"/>
      <point x="873" y="55"/>
      <point x="790" y="69"/>
      <point x="728" y="121" type="curve"/>
      <point x="715" y="59" type="line"/>
      <point x="814" y="-7"/>
      <point x="883" y="-13"/>
    </contour>
    <contour>
      <point x="475" y="-13" type="curve" smooth="yes"/>
      <point x="525" y="-13"/>
      <point x="592" y="-7"/>
      <point x="691" y="59" type="curve"/>
      <point x="678" y="121" type="line"/>
      <point x="616" y="69"/>
      <point x="533" y="55"/>
      <point x="480" y="55" type="curve" smooth="yes"/>
      <point x="298" y="55"/>
      <point x="178" y="223"/>
      <point x="178" y="491" type="curve" smooth="yes"/>
      <point x="178" y="761"/>
      <point x="298" y="927"/>
      <point x="480" y="927" type="curve" smooth="yes"/>
      <point x="533" y="927"/>
      <point x="616" y="913"/>
      <point x="678" y="861" type="curve"/>
      <point x="691" y="923" type="line"/>
      <point x="592" y="989"/>
      <point x="521" y="995"/>
      <point x="475" y="995" type="curve" smooth="yes"/>
      <point x="217" y="995"/>
      <point x="86" y="811"/>
      <point x="86" y="488" type="curve" smooth="yes"/>
      <point x="86" y="145"/>
      <point x="221" y="-13"/>
    </contour>
    <contour>
      <point x="664" y="-526" type="line"/>
      <point x="742" y="-526" type="line"/>
      <point x="742" y="1514" type="line"/>
      <point x="664" y="1514" type="line"/>
    </contour>
  </outline>
</glyph>
<glyph name="tse-cy" format="2">
  <advance width="1093"/>
  <unicode hex="0446"/>
  <anchor x="951" y="990" name="bottomright"/>
  <outline>
    <contour>
      <point x="1011" y="0" type="line"/>
      <point x="1011" y="81" type="line"/>
      <point x="826" y="81" type="line"/>
      <point x="826" y="0" type="line"/>
    </contour>
    <component base="pe-cy" yScale="-1" yOffset="990"/>
    <component base="_cyrillicdescender01" xScale="-1" xOffset="1093"/>
  </outline>
</glyph>
<glyph name="ereversed-cy" format="2">
  <advance width="1051"/>
  <unicode hex="044D"/>
  <anchor x="530" y="990" name="top"/>
  <outline>
    <contour>
      <point x="490" y="-11" type="curve" smooth="yes"/>
      <point x="786" y="-11"/>
      <point x="966" y="200"/>
      <point x="966" y="495" type="curve" smooth="yes"/>
      <point x="966" y="788"/>
      <point x="778" y="1002"/>
      <point x="491" y="1002" type="curve" smooth="yes"/>
      <point x="296" y="1002"/>
      <point x="142" y="904"/>
      <point x="77" y="732" type="curve"/>
      <point x="177" y="732" type="line"/>
      <point x="217" y="844"/>
      <point x="339" y="919"/>
      <point x="492" y="919" type="curve" smooth="yes"/>
      <point x="724" y="919"/>
      <point x="869" y="751"/>
      <point x="869" y="495" type="curve" smooth="yes"/>
      <point x="869" y="239"/>
      <point x="721" y="71"/>
      <point x="489" y="71" type="curve" smooth="yes"/>
      <point x="345" y="71"/>
      <point x="232" y="140"/>
      <point x="180" y="260" type="curve"/>
      <point x="78" y="260" type="line"/>
      <point x="168" y="74"/>
      <point x="302" y="-11"/>
    </contour>
    <contour>
      <point x="413" y="455" type="line"/>
      <point x="870" y="455" type="line"/>
      <point x="870" y="536" type="line"/>
      <point x="413" y="536" type="line"/>
    </contour>
  </outline>
</glyph>
<glyph name="Yat-cy" format="2">
  <advance width="1084"/>
  <unicode hex="0462"/>
  <outline>
    <contour>
      <point x="308" y="0" type="line"/>
      <point x="551" y="0" type="line" smooth="yes"/>
      <point x="693" y="0"/>
      <point x="794" y="27"/>
      <point x="867" y="92" type="curve" smooth="yes"/>
      <point x="931" y="150"/>
      <point x="988" y="247"/>
      <point x="988" y="390" type="curve" smooth="yes"/>
      <point x="988" y="526"/>
      <point x="936" y="629"/>
      <point x="867" y="689" type="curve" smooth="yes"/>
      <point x="797" y="750"/>
      <point x="693" y="781"/>
      <point x="551" y="781" type="curve" smooth="yes"/>
      <point x="313" y="781" type="line"/>
      <point x="391" y="738" type="line"/>
      <point x="391" y="1430" type="line"/>
      <point x="308" y="1430" type="line"/>
    </contour>
    <contour>
      <point x="391" y="14" type="line"/>
      <point x="391" y="767" type="line"/>
      <point x="324" y="704" type="line"/>
      <point x="515" y="704" type="line" smooth="yes"/>
      <point x="781" y="704"/>
      <point x="899" y="616"/>
      <point x="899" y="390" type="curve" smooth="yes"/>
      <point x="899" y="165"/>
      <point x="781" y="77"/>
      <point x="515" y="77" type="curve" smooth="yes"/>
      <point x="324" y="77" type="line"/>
    </contour>
    <contour>
      <point x="106" y="1209" type="line"/>
      <point x="594" y="1209" type="line"/>
      <point x="594" y="1286" type="line"/>
      <point x="106" y="1286" type="line"/>
    </contour>
  </outline>
</glyph>
<glyph name="izhitsa-cy" format="2">
  <advance width="1260"/>
  <unicode hex="0475"/>
  <anchor x="630" y="990" name="top"/>
  <outline>
    <contour>
      <point x="543" y="-27" type="line"/>
      <point x="548" y="-27" type="line"/>
      <point x="831" y="599" type="line" smooth="yes"/>
      <point x="963" y="892"/>
      <point x="976" y="944"/>
      <point x="1055" y="944" type="curve" smooth="yes"/>
      <point x="1086" y="944"/>
      <point x="1110" y="934"/>
      <point x="1125" y="919" type="curve"/>
      <point x="1186" y="968" type="line"/>
      <point x="1155" y="998"/>
      <point x="1110" y="1016"/>
      <point x="1067" y="1016" type="curve" smooth="yes"/>
      <point x="937" y="1016"/>
      <point x="912" y="951"/>
      <point x="757" y="599" type="curve" smooth="yes"/>
      <point x="547" y="122" type="line"/>
      <point x="579" y="122" type="line"/>
      <point x="186" y="990" type="line"/>
      <point x="74" y="990" type="line"/>
    </contour>
  </outline>
</glyph>
<glyph name="Shha-cy" format="2">
  <advance width="1106"/>
  <unicode hex="04BA"/>
  <anchor x="1086" y="0" name="bottomright"/>
  <outline>
    <contour>
      <point x="143" y="0" type="line"/>
      <point x="225" y="0" type="line"/>
      <point x="228" y="391" type="line" smooth="yes"/>
      <point x="230" y="616"/>
      <point x="352" y="755"/>
      <point x="588" y="755" type="curve" smooth="yes"/>
      <point x="796" y="755"/>
      <point x="904" y="647"/>
      <point x="904" y="370" type="curve" smooth="yes"/>
      <point x="904" y="0" type="line"/>
      <point x="987" y="0" type="line"/>
      <point x="987" y="376" type="line" smooth="yes"/>
      <point x="987" y="694"/>
      <point x="857" y="836"/>
      <point x="604" y="836" type="curve" smooth="yes"/>
      <point x="371" y="836"/>
      <point x="234" y="715"/>
      <point x="200" y="480" type="curve"/>
      <point x="226" y="490" type="line"/>
      <point x="226" y="1430" type="line"/>
      <point x="143" y="1430" type="line"/>
    </contour>
  </outline>
</glyph>
<glyph name="Germandbls" format="2">
  <advance width="1399"/>
  <unicode hex="1E9E"/>
  <anchor x="700" y="-20" name="bottom"/>
  <anchor x="700" y="1430" name="top"/>
  <outline>
    <contour>
      <point x="812" y="-25" type="curve" smooth="yes"/>
      <point x="1109" y="-25"/>
      <point x="1289" y="118"/>
      <point x="1289" y="382" type="curve" smooth="yes"/>
      <point x="1289" y="654"/>
      <point x="1041" y="733"/>
      <point x="836" y="797" type="curve" smooth="yes"/>
      <point x="814" y="804"/>
      <point x="748" y="826"/>
      <point x="711" y="838" type="curve"/>
      <point x="745" y="771" type="line"/>
      <point x="973" y="1461" type="line"/>
      <point x="884" y="1493"/>
      <point x="793" y="1511"/>
      <point x="656" y="1511" type="curve" smooth="yes"/>
      <point x="301" y="1511"/>
      <point x="140" y="1425"/>
      <point x="140" y="1221" type="curve" smooth="yes"/>
      <point x="140" y="0" type="line"/>
      <point x="223" y="0" type="line"/>
      <point x="223" y="1249" type="line" smooth="yes"/>
      <point x="223" y="1365"/>
      <point x="378" y="1434"/>
      <point x="656" y="1434" type="curve" smooth="yes"/>
      <point x="745" y="1434"/>
      <point x="844" y="1422"/>
      <point x="897" y="1411" type="curve"/>
      <point x="884" y="1465" type="line"/>
      <point x="649" y="755" type="line"/>
      <point x="687" y="739"/>
      <point x="781" y="714"/>
      <point x="804" y="707" type="curve" smooth="yes"/>
      <point x="1064" y="629"/>
      <point x="1187" y="564"/>
      <point x="1187" y="368" type="curve" smooth="yes"/>
      <point x="1187" y="165"/>
      <point x="1055" y="54"/>
      <point x="818" y="54" type="curve" smooth="yes"/>
      <point x="667" y="54"/>
      <point x="550" y="107"/>
      <point x="481" y="193" type="curve"/>
      <point x="451" y="100" type="line"/>
      <point x="548" y="15"/>
      <point x="652" y="-25"/>
    </contour>
  </outline>
</glyph>
<glyph name="endash" format="2">
  <advance width="1479"/>
  <unicode hex="2013"/>
  <note>
endash
</note>
  <outline>
    <contour>
      <point x="86" y="473" type="line"/>
      <point x="1393" y="473" type="line"/>
      <point x="1393" y="562" type="line"/>
      <point x="87" y="562" type="line"/>
    </contour>
  </outline>
</glyph>
<glyph name="emdash" format="2">
  <advance width="2053"/>
  <unicode hex="2014"/>
  <note>
emdash
</note>
  <outline>
    <contour>
      <point x="86" y="473" type="line"/>
      <point x="1967" y="473" type="line"/>
      <point x="1967" y="562" type="line"/>
      <point x="86" y="562" type="line"/>
    </contour>
  </outline>
</glyph>
<glyph name="guilsinglleft" format="2">
  <advance width="567"/>
  <unicode hex="2039"/>
  <note>
guilsinglleft
</note>
  <outline>
    <contour>
      <point x="435" y="-11" type="line"/>
      <point x="463" y="60" type="line"/>
      <point x="211" y="436" type="line"/>
      <point x="463" y="815" type="line"/>
      <point x="430" y="881" type="line"/>
      <point x="99" y="436" type="line"/>
    </contour>
  </outline>
</glyph>
<glyph name="guilsinglright" format="2">
  <advance width="566"/>
  <unicode hex="203A"/>
  <note>
guilsinglright
</note>
  <outline>
    <contour>
      <point x="133" y="-9" type="line"/>
      <point x="467" y="436" type="line"/>
      <point x="136" y="881" type="line"/>
      <point x="103" y="815" type="line"/>
      <point x="355" y="436" type="line"/>
      <point x="104" y="59" type="line"/>
    </contour>
  </outline>
</glyph>
<glyph name="kip" format="2">
  <advance width="1353"/>
  <unicode hex="20AD"/>
  <outline>
    <contour>
      <point x="1080" y="0" type="line"/>
      <point x="1206" y="0" type="line"/>
      <point x="541" y="739" type="line"/>
      <point x="441" y="711" type="line"/>
    </contour>
    <contour>
      <point x="185" y="0" type="line"/>
      <point x="271" y="0" type="line"/>
      <point x="271" y="1430" type="line"/>
      <point x="185" y="1430" type="line"/>
    </contour>
    <contour>
      <point x="242" y="682" type="line"/>
      <point x="550" y="682" type="line"/>
      <point x="550" y="748" type="line"/>
      <point x="242" y="748" type="line"/>
    </contour>
    <contour>
      <point x="436" y="721" type="line"/>
      <point x="549" y="727" type="line"/>
      <point x="1149" y="1430" type="line"/>
      <point x="1042" y="1430" type="line"/>
    </contour>
  </outline>
</glyph>
<glyph name="peso" format="2">
  <advance width="1500"/>
  <unicode hex="20B1"/>
  <anchor x="760" y="-20" name="_bottom"/>
  <anchor x="760" y="475" name="bar"/>
  <anchor x="760" y="-336" name="bottom"/>
  <anchor x="760" y="1430" name="top"/>
  <outline>
    <contour>
      <point x="152" y="1123" type="line"/>
      <point x="1348" y="1123" type="line"/>
      <point x="1348" y="1200" type="line"/>
      <point x="152" y="1200" type="line"/>
    </contour>
    <contour>
      <point x="152" y="823" type="line"/>
      <point x="1348" y="823" type="line"/>
      <point x="1348" y="900" type="line"/>
      <point x="152" y="900" type="line"/>
    </contour>
    <component base="P" xOffset="236"/>
  </outline>
</glyph>
<glyph name="guarani" format="2">
  <advance width="1634"/>
  <unicode hex="20B2"/>
  <anchor x="817" y="0" name="bottom"/>
  <anchor x="817" y="1430" name="top"/>
  <outline>
    <contour>
      <point x="821" y="-10" type="curve" smooth="yes"/>
      <point x="1200" y="-10"/>
      <point x="1461" y="256"/>
      <point x="1485" y="654" type="curve"/>
      <point x="1387" y="654" type="line"/>
      <point x="1363" y="309"/>
      <point x="1143" y="78"/>
      <point x="821" y="69" type="curve"/>
      <point x="480" y="79"/>
      <point x="253" y="338"/>
      <point x="253" y="717" type="curve" smooth="yes"/>
      <point x="253" y="1096"/>
      <point x="483" y="1358"/>
      <point x="821" y="1364" type="curve"/>
      <point x="1032" y="1360"/>
      <point x="1201" y="1257"/>
      <point x="1298" y="1087" type="curve"/>
      <point x="1406" y="1087" type="line"/>
      <point x="1298" y="1308"/>
      <point x="1088" y="1443"/>
      <point x="821" y="1443" type="curve" smooth="yes"/>
      <point x="426" y="1443"/>
      <point x="155" y="1145"/>
      <point x="155" y="714" type="curve" smooth="yes"/>
      <point x="155" y="283"/>
      <point x="423" y="-10"/>
    </contour>
    <contour>
      <point x="999" y="576" type="line"/>
      <point x="1458" y="576" type="line"/>
      <point x="1458" y="653" type="line"/>
      <point x="999" y="653" type="line"/>
    </contour>
    <contour>
      <point x="777" y="-167" type="line"/>
      <point x="863" y="-167" type="line"/>
      <point x="863" y="1591" type="line"/>
      <point x="777" y="1591" type="line"/>
    </contour>
  </outline>
</glyph>
<glyph name="liraTurkish" format="2">
  <advance width="1179"/>
  <unicode hex="20BA"/>
  <outline>
    <contour>
      <point x="386" y="0" type="line"/>
      <point x="657" y="0"/>
      <point x="992" y="-14"/>
      <point x="1030" y="406" type="curve"/>
      <point x="931" y="406" type="line"/>
      <point x="911" y="70"/>
      <point x="649" y="86"/>
      <point x="413" y="79" type="curve"/>
      <point x="474" y="14" type="line"/>
      <point x="474" y="1431" type="line"/>
      <point x="386" y="1431" type="line"/>
    </contour>
    <contour>
      <point x="192" y="455" type="line"/>
      <point x="708" y="753" type="line"/>
      <point x="665" y="818" type="line"/>
      <point x="150" y="521" type="line"/>
    </contour>
    <contour>
      <point x="192" y="637" type="line"/>
      <point x="708" y="934" type="line"/>
      <point x="665" y="999" type="line"/>
      <point x="149" y="702" type="line"/>
    </contour>
  </outline>
</glyph>
<glyph name="manat" format="2">
  <advance width="1228"/>
  <unicode hex="20BC"/>
  <outline>
    <contour>
      <point x="166" y="0" type="line"/>
      <point x="264" y="0" type="line"/>
      <point x="264" y="482" type="line"/>
      <point x="264" y="758"/>
      <point x="404" y="935"/>
      <point x="614" y="935" type="curve" smooth="yes"/>
      <point x="823" y="935"/>
      <point x="964" y="753"/>
      <point x="964" y="482" type="curve"/>
      <point x="964" y="0" type="line"/>
      <point x="1062" y="0" type="line"/>
      <point x="1062" y="482" type="line"/>
      <point x="1062" y="791"/>
      <point x="875" y="1016"/>
      <point x="613" y="1016" type="curve" smooth="yes"/>
      <point x="352" y="1016"/>
      <point x="166" y="792"/>
      <point x="166" y="482" type="curve"/>
    </contour>
    <contour>
      <point x="571" y="0" type="line"/>
      <point x="657" y="0" type="line"/>
      <point x="657" y="1258" type="line"/>
      <point x="571" y="1258" type="line"/>
    </contour>
  </outline>
</glyph>
<glyph name="ruble" format="2">
  <advance width="1356"/>
  <unicode hex="20BD"/>
  <anchor x="790" y="-20" name="_bottom"/>
  <anchor x="790" y="475" name="bar"/>
  <anchor x="790" y="-336" name="bottom"/>
  <anchor x="790" y="1430" name="top"/>
  <outline>
    <contour>
      <point x="152" y="593" type="line"/>
      <point x="428" y="593" type="line"/>
      <point x="428" y="670" type="line"/>
      <point x="152" y="670" type="line"/>
    </contour>
    <contour>
      <point x="152" y="293" type="line"/>
      <point x="748" y="293" type="line"/>
      <point x="748" y="370" type="line"/>
      <point x="152" y="370" type="line"/>
    </contour>
    <component base="P" xOffset="266"/>
  </outline>
</glyph>
<glyph name="trademark" format="2">
  <advance width="1411"/>
  <unicode hex="2122"/>
  <note>
trademark
</note>
  <outline>
    <contour>
      <point x="691" y="900" type="line"/>
      <point x="771" y="900" type="line"/>
      <point x="771" y="1348" type="line"/>
      <point x="947" y="900" type="line"/>
      <point x="999" y="900" type="line"/>
      <point x="1167" y="1348" type="line"/>
      <point x="1167" y="900" type="line"/>
      <point x="1247" y="900" type="line"/>
      <point x="1247" y="1422" type="line"/>
      <point x="1119" y="1422" type="line"/>
      <point x="973" y="1026" type="line"/>
      <point x="817" y="1422" type="line"/>
      <point x="691" y="1422" type="line"/>
    </contour>
    <contour>
      <point x="309" y="900" type="line"/>
      <point x="401" y="900" type="line"/>
      <point x="401" y="1356" type="line"/>
      <point x="569" y="1356" type="line"/>
      <point x="569" y="1422" type="line"/>
      <point x="139" y="1422" type="line"/>
      <point x="139" y="1356" type="line"/>
      <point x="309" y="1356" type="line"/>
    </contour>
  </outline>
</glyph>
<glyph name="partialdiff" format="2">
  <advance width="1001"/>
  <unicode hex="2202"/>
  <note>
partialdiff
</note>
  <outline>
    <contour>
      <point x="463" y="-15" type="curve" smooth="yes"/>
      <point x="676" y="-15"/>
      <point x="853" y="285"/>
      <point x="853" y="693" type="curve" smooth="yes"/>
      <point x="853" y="1096"/>
      <point x="747" y="1263"/>
      <point x="516" y="1263" type="curve" smooth="yes"/>
      <point x="405" y="1263"/>
      <point x="317" y="1204"/>
      <point x="317" y="1125" type="curve" smooth="yes"/>
      <point x="317" y="1099"/>
      <point x="328" y="1064"/>
      <point x="346" y="1064" type="curve" smooth="yes"/>
      <point x="354" y="1064"/>
      <point x="373" y="1096"/>
      <point x="415" y="1127" type="curve" smooth="yes"/>
      <point x="437" y="1143"/>
      <point x="491" y="1166"/>
      <point x="538" y="1166" type="curve" smooth="yes"/>
      <point x="699" y="1166"/>
      <point x="767" y="1039"/>
      <point x="767" y="785" type="curve" smooth="yes"/>
      <point x="767" y="714"/>
      <point x="763" y="630"/>
      <point x="755" y="530" type="curve"/>
      <point x="719" y="689"/>
      <point x="627" y="775"/>
      <point x="487" y="775" type="curve" smooth="yes"/>
      <point x="299" y="775"/>
      <point x="142" y="596"/>
      <point x="142" y="356" type="curve" smooth="yes"/>
      <point x="142" y="110"/>
      <point x="250" y="-15"/>
    </contour>
    <contour>
      <point x="442" y="66" type="curve" smooth="yes"/>
      <point x="323" y="66"/>
      <point x="243" y="166"/>
      <point x="243" y="315" type="curve" smooth="yes"/>
      <point x="243" y="522"/>
      <point x="331" y="685"/>
      <point x="508" y="685" type="curve" smooth="yes"/>
      <point x="637" y="685"/>
      <point x="714" y="601"/>
      <point x="714" y="460" type="curve" smooth="yes"/>
      <point x="714" y="247"/>
      <point x="615" y="66"/>
    </contour>
  </outline>
</glyph>
<glyph name="emptyset" format="2">
  <advance width="1236"/>
  <unicode hex="2205"/>
  <outline>
    <contour>
      <point x="575" y="-11" type="curve" smooth="yes"/>
      <point x="858" y="-11"/>
      <point x="1087" y="218"/>
      <point x="1087" y="502" type="curve" smooth="yes"/>
      <point x="1087" y="785"/>
      <point x="858" y="1014"/>
      <point x="575" y="1014" type="curve" smooth="yes"/>
      <point x="291" y="1014"/>
      <point x="62" y="785"/>
      <point x="62" y="502" type="curve" smooth="yes"/>
      <point x="62" y="218"/>
      <point x="291" y="-11"/>
    </contour>
    <contour>
      <point x="575" y="75" type="curve" smooth="yes"/>
      <point x="339" y="75"/>
      <point x="148" y="266"/>
      <point x="148" y="503" type="curve" smooth="yes"/>
      <point x="148" y="739"/>
      <point x="339" y="929"/>
      <point x="575" y="929" type="curve" smooth="yes"/>
      <point x="811" y="929"/>
      <point x="1002" y="739"/>
      <point x="1002" y="503" type="curve" smooth="yes"/>
      <point x="1002" y="266"/>
      <point x="811" y="75"/>
    </contour>
    <component base="slashlongcomb" xOffset="170" yOffset="24"/>
  </outline>
</glyph>
<glyph name="summation" format="2">
  <advance width="1296"/>
  <unicode hex="2211"/>
  <note>
summation
</note>
  <outline>
    <contour>
      <point x="136" y="-295" type="line"/>
      <point x="1158" y="-295" type="line"/>
      <point x="1158" y="-224" type="line"/>
      <point x="258" y="-224" type="line"/>
      <point x="956" y="551" type="line"/>
      <point x="288" y="1276" type="line"/>
      <point x="1142" y="1276" type="line"/>
      <point x="1142" y="1357" type="line"/>
      <point x="168" y="1357" type="line"/>
      <point x="168" y="1289" type="line"/>
      <point x="854" y="546" type="line"/>
      <point x="136" y="-252" type="line"/>
    </contour>
  </outline>
</glyph>
<glyph name="fraction" format="2">
  <unicode hex="2215"/>
  <note>
fraction
</note>
  <outline>
    <contour>
      <point x="-500" y="9" type="line"/>
      <point x="-418" y="9" type="line"/>
      <point x="300" y="1401" type="line"/>
      <point x="218" y="1401" type="line"/>
    </contour>
  </outline>
</glyph>
<glyph name="notequal" format="2">
  <advance width="1081"/>
  <unicode hex="2260"/>
  <note>
notequal
</note>
  <outline>
    <contour>
      <point x="729" y="1122" type="line"/>
      <point x="383" y="223" type="line"/>
      <point x="460" y="223" type="line"/>
      <point x="806" y="1122" type="line"/>
    </contour>
    <component base="equal"/>
  </outline>
</glyph>
<glyph name="lozenge" format="2">
  <advance width="1264"/>
  <unicode hex="25CA"/>
  <note>
lozenge
</note>
  <outline>
    <contour>
      <point x="632" y="-293" type="line"/>
      <point x="1037" y="578" type="line"/>
      <point x="632" y="1443" type="line"/>
      <point x="227" y="578" type="line"/>
    </contour>
    <contour>
      <point x="632" y="-496" type="line"/>
      <point x="135" y="578" type="line"/>
      <point x="632" y="1641" type="line"/>
      <point x="1129" y="578" type="line"/>
    </contour>
  </outline>
</glyph>
<glyph name="leftanglebracket-math" format="2">
  <advance width="777"/>
  <unicode hex="27E8"/>
  <outline>
    <contour>
      <point x="658" y="167" type="line"/>
      <point x="674" y="249" type="line"/>
      <point x="247" y="702" type="line"/>
      <point x="673" y="1158" type="line"/>
      <point x="652" y="1235" type="line"/>
      <point x="98" y="702" type="line"/>
    </contour>
  </outline>
</glyph>
<glyph name="fl" format="2">
  <advance width="757"/>
  <unicode hex="F002"/>
  <note>
fl
</note>
  <anchor x="378.5" y="0" name="caret_1"/>
  <outline>
    <contour>
      <point x="281" y="0" type="line"/>
      <point x="366" y="0" type="line"/>
      <point x="366" y="1115" type="line" smooth="yes"/>
      <point x="366" y="1378"/>
      <point x="381" y="1450"/>
      <point x="469" y="1450" type="curve" smooth="yes"/>
      <point x="525" y="1450"/>
      <point x="558" y="1428"/>
      <point x="558" y="1388" type="curve"/>
      <point x="625" y="1331" type="line"/>
      <point x="630" y="1339"/>
      <point x="640" y="1367"/>
      <point x="640" y="1396" type="curve" smooth="yes"/>
      <point x="640" y="1474"/>
      <point x="547" y="1532"/>
      <point x="461" y="1532" type="curve" smooth="yes"/>
      <point x="257" y="1532"/>
      <point x="281" y="1312"/>
      <point x="281" y="1114" type="curve"/>
    </contour>
    <contour>
      <point x="77" y="909" type="line"/>
      <point x="569" y="909" type="line"/>
      <point x="569" y="988" type="line"/>
      <point x="77" y="988" type="line"/>
    </contour>
    <contour>
      <point x="558" y="0" type="line"/>
      <point x="641" y="0" type="line"/>
      <point x="641" y="1507" type="line"/>
      <point x="558" y="1507" type="line"/>
    </contour>
  </outline>
</glyph>
<glyph name="W.rvrn" format="2">
  <advance width="2068"/>
  <note>
W
</note>
  <anchor x="1034" y="-20" name="bottom"/>
  <anchor x="1034" y="1430" name="top"/>
  <outline>
    <contour>
      <point x="1373" y="-36" type="line"/>
      <point x="1963" y="1430" type="line"/>
      <point x="1882" y="1430" type="line"/>
      <point x="1342" y="87" type="line"/>
      <point x="1413" y="78" type="line"/>
      <point x="869" y="1430" type="line"/>
      <point x="783" y="1430" type="line"/>
    </contour>
    <contour>
      <point x="695" y="-36" type="line"/>
      <point x="1057" y="861" type="line"/>
      <point x="1015" y="959" type="line"/>
      <point x="662" y="81" type="line"/>
      <point x="735" y="78" type="line"/>
      <point x="191" y="1430" type="line"/>
      <point x="105" y="1430" type="line"/>
    </contour>
  </outline>
</glyph>
<glyph name="_cyrillic_bar" format="2">
  <advance width="368"/>
  <anchor x="184" y="733" name="_center"/>
  <outline>
    <contour>
      <point x="0" y="693" type="line"/>
      <point x="368" y="693" type="line"/>
      <point x="368" y="773" type="line"/>
      <point x="0" y="773" type="line"/>
    </contour>
  </outline>
</glyph>
<glyph name="_cyrillicdescender01.case" format="2">
  <advance width="26"/>
  <anchor x="26" y="0" name="_bottomright"/>
  <outline>
    <contour>
      <point x="26" y="0" type="line"/>
      <point x="26" y="77" type="line"/>
      <point x="-197" y="77" type="line"/>
      <point x="-197" y="0" type="line"/>
    </contour>
    <component base="_cyrillicdescender02.case" xOffset="-60"/>
  </outline>
</glyph>
<glyph name="_cyrillicdescender02.case" format="2">
  <advance width="86"/>
  <outline>
    <contour>
      <point x="0" y="0" type="line"/>
      <point x="6" y="-243" type="line"/>
      <point x="80" y="-243" type="line"/>
      <point x="86" y="0" type="line"/>
    </contour>
  </outline>
</glyph>
<glyph name="_cyrillicdescender02" format="2">
  <advance width="1224"/>
  <anchor x="222" y="0" name="_bottomright"/>
  <outline>
    <contour>
      <point x="82" y="0" type="line"/>
      <point x="267" y="0" type="line"/>
      <point x="267" y="80" type="line"/>
      <point x="82" y="80" type="line"/>
    </contour>
    <component base="_cyrillicdescender01" xOffset="104"/>
  </outline>
</glyph>
<glyph name="currency_horz_stroke.case" format="2">
  <advance width="1928"/>
  <anchor x="964" y="729" name="_bar"/>
  <anchor x="964" y="20" name="_bottom"/>
  <anchor x="964" y="515" name="bar"/>
  <anchor x="964" y="-296" name="bottom"/>
  <outline>
    <contour>
      <point x="426" y="655" type="line"/>
      <point x="1502" y="655" type="line"/>
      <point x="1502" y="732" type="line"/>
      <point x="426" y="732" type="line"/>
    </contour>
  </outline>
</glyph>
<glyph name="currency_vert_stroke.case" format="2">
  <advance width="436"/>
  <anchor x="215" y="0" name="_bottom"/>
  <outline>
    <contour>
      <point x="175" y="-167" type="line"/>
      <point x="261" y="-167" type="line"/>
      <point x="261" y="1591" type="line"/>
      <point x="175" y="1591" type="line"/>
    </contour>
  </outline>
</glyph>
<glyph name="currency_vert_stroke" format="2">
  <advance width="430"/>
  <anchor x="225" y="1199" name="_top"/>
  <outline>
    <contour>
      <point x="172" y="83" type="line"/>
      <point x="258" y="83" type="line"/>
      <point x="258" y="1341" type="line"/>
      <point x="172" y="1341" type="line"/>
    </contour>
  </outline>
</glyph>
<glyph name="eight.dnom" format="2">
  <advance width="636"/>
  <note>
eight
</note>
  <outline>
    <contour>
      <point x="321" y="-20" type="curve" smooth="yes"/>
      <point x="498" y="-20"/>
      <point x="611" y="86"/>
      <point x="611" y="250" type="curve" smooth="yes"/>
      <point x="611" y="397"/>
      <point x="510" y="498"/>
      <point x="336" y="554" type="curve" smooth="yes"/>
      <point x="175" y="606"/>
      <point x="147" y="663"/>
      <point x="147" y="732" type="curve" smooth="yes"/>
      <point x="147" y="830"/>
      <point x="215" y="892"/>
      <point x="324" y="892" type="curve" smooth="yes"/>
      <point x="426" y="892"/>
      <point x="501" y="825"/>
      <point x="501" y="730" type="curve" smooth="yes"/>
      <point x="501" y="663"/>
      <point x="457" y="588"/>
      <point x="309" y="523" type="curve"/>
      <point x="393" y="503" type="line"/>
      <point x="486" y="549"/>
      <point x="571" y="645"/>
      <point x="571" y="740" type="curve" smooth="yes"/>
      <point x="571" y="876"/>
      <point x="444" y="953"/>
      <point x="313" y="953" type="curve" smooth="yes"/>
      <point x="167" y="953"/>
      <point x="67" y="864"/>
      <point x="67" y="724" type="curve" smooth="yes"/>
      <point x="67" y="609"/>
      <point x="170" y="529"/>
      <point x="285" y="490" type="curve" smooth="yes"/>
      <point x="484" y="422"/>
      <point x="526" y="347"/>
      <point x="526" y="254" type="curve" smooth="yes"/>
      <point x="526" y="126"/>
      <point x="449" y="46"/>
      <point x="312" y="46" type="curve" smooth="yes"/>
      <point x="177" y="46"/>
      <point x="98" y="129"/>
      <point x="98" y="254" type="curve" smooth="yes"/>
      <point x="98" y="345"/>
      <point x="144" y="427"/>
      <point x="295" y="503" type="curve"/>
      <point x="233" y="528" type="line"/>
      <point x="101" y="469"/>
      <point x="23" y="363"/>
      <point x="23" y="238" type="curve" smooth="yes"/>
      <point x="23" y="82"/>
      <point x="153" y="-20"/>
    </contour>
  </outline>
</glyph>
<glyph name="f_f" format="2">
  <advance width="923"/>
  <anchor x="461.5" y="0" name="caret_1"/>
  <outline>
    <contour>
      <point x="558" y="0" type="line"/>
      <point x="643" y="0" type="line"/>
      <point x="643" y="1115" type="line" smooth="yes"/>
      <point x="643" y="1378"/>
      <point x="658" y="1450"/>
      <point x="746" y="1450" type="curve" smooth="yes"/>
      <point x="802" y="1450"/>
      <point x="835" y="1428"/>
      <point x="835" y="1388" type="curve" smooth="yes"/>
      <point x="835" y="1371"/>
      <point x="829" y="1349"/>
      <point x="823" y="1331" type="curve"/>
      <point x="902" y="1331" type="line"/>
      <point x="907" y="1339"/>
      <point x="917" y="1367"/>
      <point x="917" y="1396" type="curve" smooth="yes"/>
      <point x="917" y="1474"/>
      <point x="824" y="1532"/>
      <point x="738" y="1532" type="curve" smooth="yes"/>
      <point x="534" y="1532"/>
      <point x="558" y="1312"/>
      <point x="558" y="1114" type="curve"/>
    </contour>
    <contour>
      <point x="281" y="0" type="line"/>
      <point x="366" y="0" type="line"/>
      <point x="366" y="1032" type="line" smooth="yes"/>
      <point x="366" y="1295"/>
      <point x="381" y="1367"/>
      <point x="469" y="1367" type="curve" smooth="yes"/>
      <point x="525" y="1367"/>
      <point x="557" y="1345"/>
      <point x="557" y="1305" type="curve"/>
      <point x="558" y="1048" type="line"/>
      <point x="625" y="1248" type="line"/>
      <point x="630" y="1256"/>
      <point x="640" y="1284"/>
      <point x="640" y="1313" type="curve" smooth="yes"/>
      <point x="640" y="1391"/>
      <point x="558" y="1449"/>
      <point x="461" y="1449" type="curve" smooth="yes"/>
      <point x="271" y="1449"/>
      <point x="281" y="1229"/>
      <point x="281" y="1031" type="curve" smooth="yes"/>
    </contour>
    <contour>
      <point x="77" y="909" type="line"/>
      <point x="569" y="909" type="line"/>
      <point x="569" y="988" type="line"/>
      <point x="77" y="988" type="line"/>
    </contour>
    <contour>
      <point x="354" y="909" type="line"/>
      <point x="846" y="909" type="line"/>
      <point x="846" y="988" type="line"/>
      <point x="354" y="988" type="line"/>
    </contour>
  </outline>
</glyph>
<glyph name="f_j" format="2">
  <advance width="764"/>
  <anchor x="191" y="0" name="bottom_1"/>
  <anchor x="573" y="0" name="bottom_2"/>
  <anchor x="382" y="0" name="caret_1"/>
  <anchor x="191" y="1514" name="top_1"/>
  <anchor x="573" y="1514" name="top_2"/>
  <outline>
    <contour>
      <point x="281" y="0" type="line"/>
      <point x="366" y="0" type="line"/>
      <point x="366" y="949" type="line"/>
      <point x="326" y="909" type="line"/>
      <point x="569" y="909" type="line"/>
      <point x="569" y="988" type="line"/>
      <point x="326" y="988" type="line"/>
      <point x="366" y="948" type="line"/>
      <point x="366" y="1115" type="line" smooth="yes"/>
      <point x="366" y="1378"/>
      <point x="391" y="1450"/>
      <point x="479" y="1450" type="curve" smooth="yes"/>
      <point x="535" y="1450"/>
      <point x="578" y="1428"/>
      <point x="578" y="1388" type="curve" smooth="yes"/>
      <point x="578" y="1371"/>
      <point x="572" y="1349"/>
      <point x="566" y="1331" type="curve"/>
      <point x="645" y="1331" type="line"/>
      <point x="650" y="1339"/>
      <point x="660" y="1367"/>
      <point x="660" y="1396" type="curve" smooth="yes"/>
      <point x="660" y="1480"/>
      <point x="587" y="1532"/>
      <point x="471" y="1532" type="curve" smooth="yes"/>
      <point x="267" y="1532"/>
      <point x="281" y="1312"/>
      <point x="281" y="1114" type="curve" smooth="yes"/>
      <point x="281" y="948" type="line"/>
      <point x="321" y="988" type="line"/>
      <point x="77" y="988" type="line"/>
      <point x="77" y="909" type="line"/>
      <point x="321" y="909" type="line"/>
      <point x="281" y="949" type="line"/>
    </contour>
    <contour>
      <point x="464" y="-558" type="curve" smooth="yes"/>
      <point x="655" y="-558"/>
      <point x="644" y="-337"/>
      <point x="644" y="-140" type="curve" smooth="yes"/>
      <point x="644" y="988" type="line"/>
      <point x="558" y="988" type="line"/>
      <point x="558" y="-140" type="line" smooth="yes"/>
      <point x="558" y="-400"/>
      <point x="546" y="-476"/>
      <point x="456" y="-476" type="curve" smooth="yes"/>
      <point x="401" y="-476"/>
      <point x="367" y="-447"/>
      <point x="367" y="-386" type="curve" smooth="yes"/>
      <point x="367" y="-375"/>
      <point x="368" y="-367"/>
      <point x="371" y="-348" type="curve"/>
      <point x="292" y="-348" type="line"/>
      <point x="289" y="-359"/>
      <point x="286" y="-372"/>
      <point x="286" y="-392" type="curve" smooth="yes"/>
      <point x="286" y="-503"/>
      <point x="368" y="-558"/>
    </contour>
  </outline>
</glyph>
<glyph name="five.dnom" format="2">
  <advance width="590"/>
  <note>
five
</note>
  <outline>
    <contour>
      <point x="224" y="-19" type="curve" smooth="yes"/>
      <point x="411" y="-19"/>
      <point x="572" y="117"/>
      <point x="572" y="307" type="curve" smooth="yes"/>
      <point x="572" y="474"/>
      <point x="452" y="582"/>
      <point x="275" y="582" type="curve" smooth="yes"/>
      <point x="198" y="582"/>
      <point x="132" y="560"/>
      <point x="79" y="525" type="curve"/>
      <point x="114" y="513" type="line"/>
      <point x="194" y="905" type="line"/>
      <point x="137" y="862" type="line"/>
      <point x="520" y="862" type="line"/>
      <point x="520" y="944" type="line"/>
      <point x="145" y="944" type="line"/>
      <point x="52" y="485" type="line"/>
      <point x="75" y="473" type="line"/>
      <point x="117" y="498"/>
      <point x="187" y="516"/>
      <point x="249" y="516" type="curve" smooth="yes"/>
      <point x="390" y="516"/>
      <point x="480" y="435"/>
      <point x="480" y="303" type="curve" smooth="yes"/>
      <point x="480" y="156"/>
      <point x="361" y="47"/>
      <point x="225" y="47" type="curve" smooth="yes"/>
      <point x="145" y="47"/>
      <point x="80" y="83"/>
      <point x="40" y="116" type="curve"/>
      <point x="6" y="64" type="line"/>
      <point x="75" y="9"/>
      <point x="141" y="-19"/>
    </contour>
  </outline>
</glyph>
<glyph name="nine.dnom" format="2">
  <advance width="654"/>
  <note>
nine
</note>
  <outline>
    <contour>
      <point x="133" y="-24" type="line"/>
      <point x="297" y="-10"/>
      <point x="410" y="77"/>
      <point x="460" y="123" type="curve" smooth="yes"/>
      <point x="502" y="162"/>
      <point x="535" y="210"/>
      <point x="558" y="254" type="curve" smooth="yes"/>
      <point x="628" y="387"/>
      <point x="626" y="535"/>
      <point x="626" y="579" type="curve" smooth="yes"/>
      <point x="626" y="876"/>
      <point x="487" y="949"/>
      <point x="331" y="951" type="curve" smooth="yes"/>
      <point x="117" y="953"/>
      <point x="11" y="817"/>
      <point x="11" y="635" type="curve" smooth="yes"/>
      <point x="11" y="455"/>
      <point x="129" y="331"/>
      <point x="308" y="331" type="curve" smooth="yes"/>
      <point x="426" y="331"/>
      <point x="538" y="391"/>
      <point x="574" y="539" type="curve"/>
      <point x="538" y="524" type="line"/>
      <point x="538" y="421"/>
      <point x="524" y="307"/>
      <point x="439" y="204" type="curve" smooth="yes"/>
      <point x="398" y="155"/>
      <point x="307" y="68"/>
      <point x="134" y="43" type="curve"/>
    </contour>
    <contour>
      <point x="304" y="396" type="curve" smooth="yes"/>
      <point x="137" y="396"/>
      <point x="100" y="542"/>
      <point x="100" y="642" type="curve" smooth="yes"/>
      <point x="100" y="798"/>
      <point x="197" y="888"/>
      <point x="321" y="886" type="curve" smooth="yes"/>
      <point x="467" y="884"/>
      <point x="536" y="755"/>
      <point x="534" y="624" type="curve" smooth="yes"/>
      <point x="532" y="464"/>
      <point x="420" y="396"/>
    </contour>
  </outline>
</glyph>
<glyph name="o.t" format="2">
  <advance width="1120"/>
  <note>
o
</note>
  <anchor x="562" y="5" name="bottom"/>
  <anchor x="562" y="496" name="center"/>
  <anchor x="986" y="35" name="ogonek"/>
  <anchor x="552" y="966" name="top"/>
  <anchor x="1069" y="966" name="topright"/>
  <outline>
    <contour>
      <point x="559" y="-29" type="curve" smooth="yes"/>
      <point x="844" y="-29"/>
      <point x="1036" y="177"/>
      <point x="1036" y="482" type="curve" smooth="yes"/>
      <point x="1036" y="793"/>
      <point x="838" y="1016"/>
      <point x="559" y="1016" type="curve" smooth="yes"/>
      <point x="282" y="1016"/>
      <point x="85" y="793"/>
      <point x="85" y="482" type="curve" smooth="yes"/>
      <point x="85" y="177"/>
      <point x="276" y="-29"/>
    </contour>
    <contour>
      <point x="559" y="54" type="curve" smooth="yes"/>
      <point x="334" y="54"/>
      <point x="190" y="224"/>
      <point x="190" y="490" type="curve" smooth="yes"/>
      <point x="190" y="755"/>
      <point x="340" y="935"/>
      <point x="559" y="935" type="curve" smooth="yes"/>
      <point x="778" y="935"/>
      <point x="929" y="751"/>
      <point x="929" y="482" type="curve" smooth="yes"/>
      <point x="929" y="217"/>
      <point x="787" y="54"/>
    </contour>
  </outline>
</glyph>
<glyph name="one.tf" format="2">
  <advance width="1100"/>
  <outline>
    <contour>
      <point x="503" y="0" type="line"/>
      <point x="591" y="0" type="line"/>
      <point x="591" y="1430" type="line"/>
      <point x="560" y="1430" type="line"/>
      <point x="287" y="1019" type="line"/>
      <point x="346" y="980" type="line"/>
      <point x="573" y="1317" type="line"/>
      <point x="503" y="1322" type="line"/>
    </contour>
    <contour>
      <point x="215" y="0" type="line"/>
      <point x="885" y="0" type="line"/>
      <point x="885" y="79" type="line"/>
      <point x="215" y="79" type="line"/>
    </contour>
  </outline>
</glyph>
<glyph name="seven.dnom" format="2">
  <advance width="555"/>
  <note>
seven
</note>
  <outline>
    <contour>
      <point x="126" y="0" type="curve"/>
      <point x="214" y="0" type="line"/>
      <point x="269" y="370"/>
      <point x="377" y="662"/>
      <point x="568" y="935" type="curve"/>
      <point x="-8" y="935" type="line"/>
      <point x="-8" y="846" type="line"/>
      <point x="480" y="846" type="line"/>
      <point x="449" y="881" type="line"/>
      <point x="312" y="659"/>
      <point x="191" y="374"/>
    </contour>
  </outline>
</glyph>
<glyph name="seven.osf" format="2">
  <advance width="1073"/>
  <outline>
    <contour>
      <point x="297" y="-327" type="curve"/>
      <point x="389" y="-357" type="line"/>
      <point x="465" y="140"/>
      <point x="649" y="573"/>
      <point x="950" y="989" type="curve"/>
      <point x="126" y="989" type="line"/>
      <point x="126" y="885" type="line"/>
      <point x="845" y="885" type="line"/>
      <point x="808" y="920" type="line"/>
      <point x="583" y="550"/>
      <point x="381" y="130"/>
    </contour>
  </outline>
</glyph>
<glyph name="slash.fig" format="2">
  <advance width="1234"/>
  <anchor x="617" y="716" name="_center"/>
  <outline>
    <contour>
      <point x="108" y="-134" type="line"/>
      <point x="189" y="-134" type="line"/>
      <point x="1126" y="1566" type="line"/>
      <point x="1045" y="1566" type="line"/>
    </contour>
  </outline>
</glyph>
<glyph name="slashlongcomb.case" format="2">
  <anchor x="786.5" y="721" name="_center"/>
  <outline>
    <contour>
      <point x="251" y="-37" type="line"/>
      <point x="354" y="-37" type="line"/>
      <point x="1322" y="1479" type="line"/>
      <point x="1219" y="1479" type="line"/>
    </contour>
  </outline>
</glyph>
<glyph name="three.dnom" format="2">
  <advance width="632"/>
  <note>
three
</note>
  <outline>
    <contour>
      <point x="295" y="-20" type="curve" smooth="yes"/>
      <point x="477" y="-20"/>
      <point x="596" y="92"/>
      <point x="596" y="262" type="curve" smooth="yes"/>
      <point x="596" y="404"/>
      <point x="506" y="498"/>
      <point x="371" y="515" type="curve"/>
      <point x="261" y="463" type="line"/>
      <point x="469" y="468"/>
      <point x="582" y="567"/>
      <point x="582" y="715" type="curve" smooth="yes"/>
      <point x="582" y="865"/>
      <point x="476" y="961"/>
      <point x="318" y="961" type="curve" smooth="yes"/>
      <point x="145" y="961"/>
      <point x="38" y="852"/>
      <point x="35" y="691" type="curve"/>
      <point x="119" y="691" type="line"/>
      <point x="113" y="813"/>
      <point x="191" y="899"/>
      <point x="315" y="899" type="curve" smooth="yes"/>
      <point x="428" y="899"/>
      <point x="493" y="828"/>
      <point x="493" y="711" type="curve" smooth="yes"/>
      <point x="493" y="592"/>
      <point x="420" y="520"/>
      <point x="286" y="520" type="curve" smooth="yes"/>
      <point x="165" y="520" type="line"/>
      <point x="165" y="463" type="line"/>
      <point x="289" y="463" type="line" smooth="yes"/>
      <point x="419" y="463"/>
      <point x="500" y="393"/>
      <point x="500" y="262" type="curve" smooth="yes"/>
      <point x="500" y="134"/>
      <point x="421" y="41"/>
      <point x="299" y="41" type="curve" smooth="yes"/>
      <point x="185" y="41"/>
      <point x="107" y="124"/>
      <point x="107" y="238" type="curve" smooth="yes"/>
      <point x="107" y="261" type="line"/>
      <point x="17" y="261" type="line"/>
      <point x="17" y="233" type="line" smooth="yes"/>
      <point x="17" y="78"/>
      <point x="124" y="-20"/>
    </contour>
  </outline>
</glyph>
<glyph name="zero.dnom" format="2">
  <advance width="783"/>
  <note>
zero
</note>
  <outline>
    <contour>
      <point x="392" y="-18" type="curve" smooth="yes"/>
      <point x="606" y="-18"/>
      <point x="756" y="185"/>
      <point x="756" y="472" type="curve" smooth="yes"/>
      <point x="756" y="755"/>
      <point x="602" y="961"/>
      <point x="392" y="961" type="curve" smooth="yes"/>
      <point x="180" y="961"/>
      <point x="27" y="756"/>
      <point x="27" y="472" type="curve" smooth="yes"/>
      <point x="27" y="186"/>
      <point x="178" y="-18"/>
    </contour>
    <contour>
      <point x="392" y="47" type="curve" smooth="yes"/>
      <point x="231" y="47"/>
      <point x="127" y="212"/>
      <point x="127" y="472" type="curve" smooth="yes"/>
      <point x="127" y="732"/>
      <point x="231" y="897"/>
      <point x="392" y="897" type="curve" smooth="yes"/>
      <point x="552" y="897"/>
      <point x="655" y="731"/>
      <point x="655" y="472" type="curve" smooth="yes"/>
      <point x="655" y="212"/>
      <point x="552" y="47"/>
    </contour>
  </outline>
</glyph>
<glyph name="zero.osf" format="2">
  <advance width="1207"/>
  <outline>
    <contour>
      <point x="603" y="-31" type="curve" smooth="yes"/>
      <point x="889" y="-31"/>
      <point x="1112" y="192"/>
      <point x="1112" y="478" type="curve" smooth="yes"/>
      <point x="1112" y="764"/>
      <point x="889" y="987"/>
      <point x="603" y="987" type="curve" smooth="yes"/>
      <point x="317" y="987"/>
      <point x="95" y="764"/>
      <point x="95" y="478" type="curve" smooth="yes"/>
      <point x="95" y="192"/>
      <point x="317" y="-31"/>
    </contour>
    <contour>
      <point x="603" y="43" type="curve" smooth="yes"/>
      <point x="378" y="43"/>
      <point x="184" y="245"/>
      <point x="184" y="478" type="curve" smooth="yes"/>
      <point x="184" y="711"/>
      <point x="378" y="913"/>
      <point x="603" y="913" type="curve" smooth="yes"/>
      <point x="829" y="913"/>
      <point x="1023" y="711"/>
      <point x="1023" y="478" type="curve" smooth="yes"/>
      <point x="1023" y="245"/>
      <point x="829" y="43"/>
    </contour>
  </outline>
</glyph>
